<?xml version="1.0" encoding="UTF-8" standalone="no" ?>
<!DOCTYPE svg PUBLIC "-//W3C//DTD SVG 1.1//EN" "http://www.w3.org/Graphics/SVG/1.1/DTD/svg11.dtd">
<svg xmlns="http://www.w3.org/2000/svg" xmlns:xlink="http://www.w3.org/1999/xlink" version="1.1" width="1280" height="853.9882676927792" viewBox="0 0 1280 853.9882676927792" xml:space="preserve">
<desc>Created with Fabric.js 5.3.0</desc>
<defs>
</defs>
<g transform="matrix(1 0 0 1 640 426.9941338463896)" id="background-logo"  >
<rect style="stroke: none; stroke-width: 0; stroke-dasharray: none; stroke-linecap: butt; stroke-dashoffset: 0; stroke-linejoin: miter; stroke-miterlimit: 4; fill: rgb(255,255,255); fill-opacity: 0; fill-rule: nonzero; opacity: 1;"  paint-order="stroke"  x="-986.3912556418403" y="-789.1130045134722" rx="0" ry="0" width="1972.7825112836806" height="1578.2260090269444" />
</g>
<g transform="matrix(3.2295277846005965 0 0 3.229527784600596 642.8496058436999 446.308002354797)" id="logo-logo"  >
<g style=""  paint-order="stroke"   >
		<g transform="matrix(0.567334538247305 0 0 0.567334538247305 0 1.5885367070924588)"  >
<path style="stroke: none; stroke-width: 1; stroke-dasharray: none; stroke-linecap: butt; stroke-dashoffset: 0; stroke-linejoin: miter; stroke-miterlimit: 4; fill: rgb(229,226,209); fill-rule: nonzero; opacity: 1;"  paint-order="stroke"  transform=" translate(-250, -252.8)" d="M 304.3 189.4 C 304.3 159.5 280 135.10000000000002 250 135.10000000000002 C 220.1 135.10000000000002 195.7 159.40000000000003 195.7 189.40000000000003 L 195.7 208.10000000000002 L 195.7 370.5 L 249.5 370.5 L 250.4 370.5 L 304.2 370.5 L 304.3 370.5 L 304.3 208.1 L 304.2 208.1 L 304.2 189.4 L 304.3 189.4 z M 196.7 189.4 C 196.7 160.20000000000002 220.29999999999998 136.4 249.5 136.10000000000002 L 249.5 192.90000000000003 C 242.8 193.20000000000005 237.5 198.60000000000002 237.4 205.30000000000004 L 212.70000000000002 205.30000000000004 C 203.9 205.3 196.7 198.2 196.7 189.4 L 196.7 189.4 z M 249.5 369.5 L 196.7 369.5 L 196.7 209.1 L 249.5 209.1 L 249.5 369.5 z M 303.3 369.5 L 250.60000000000002 369.5 L 250.60000000000002 209.1 L 303.3 209.1 L 303.3 369.5 z M 303.3 208.1 L 250.5 208.1 L 249.6 208.1 L 196.8 208.1 L 196.8 206.4 L 303.3 206.4 L 303.3 208.1 z M 287.3 205.3 L 262.6 205.3 C 262.5 198.60000000000002 257.1 193.10000000000002 250.50000000000003 192.9 L 250.50000000000003 136.10000000000002 C 279.6 136.40000000000003 303.3 160.10000000000002 303.3 189.40000000000003 L 303.3 189.40000000000003 C 303.3 198.2 296.1 205.3 287.3 205.3 z" stroke-linecap="round" />
</g>
		<g transform="matrix(0.567334538247305 0 0 0.567334538247305 -15.261299078852517 50.577874084747236)"  >
<path style="stroke: none; stroke-width: 1; stroke-dasharray: none; stroke-linecap: butt; stroke-dashoffset: 0; stroke-linejoin: miter; stroke-miterlimit: 4; fill: rgb(229,226,209); fill-rule: nonzero; opacity: 1;"  paint-order="stroke"  transform=" translate(-223.1, -339.15)" d="M 205.7 360.5 L 240.5 360.5 L 240.5 317.8 L 205.7 317.8 L 205.7 360.5 z M 207.5 359.5 L 209 358 L 237.4 358 L 238.9 359.5 L 207.5 359.5 z M 209.2 343.1 L 209.2 335.20000000000005 C 209.2 327.50000000000006 215.39999999999998 321.30000000000007 223.1 321.30000000000007 L 223.1 321.30000000000007 C 230.79999999999998 321.30000000000007 237 327.50000000000006 237 335.20000000000005 L 237 343.1 C 237 350.8 230.8 357 223.1 357 L 223.1 357 C 215.5 357 209.2 350.8 209.2 343.1 z M 239.5 358.8 L 238 357.3 L 238 321 L 239.5 319.5 L 239.5 358.8 z M 238.8 318.8 L 237.3 320.3 L 209 320.3 L 207.5 318.8 L 238.8 318.8 z M 206.7 319.5 L 208.2 321 L 208.2 357.3 L 206.7 358.8 L 206.7 319.5 z" stroke-linecap="round" />
</g>
		<g transform="matrix(0.567334538247305 0 0 0.567334538247305 -15.261299078852517 13.928062913971331)"  >
<path style="stroke: none; stroke-width: 1; stroke-dasharray: none; stroke-linecap: butt; stroke-dashoffset: 0; stroke-linejoin: miter; stroke-miterlimit: 4; fill: rgb(229,226,209); fill-rule: nonzero; opacity: 1;"  paint-order="stroke"  transform=" translate(-223.1, -274.55)" d="M 205.7 310.6 L 240.5 310.6 L 240.5 238.50000000000003 L 205.7 238.50000000000003 L 205.7 310.6 z M 207.5 309.6 L 209 308.1 L 237.4 308.1 L 238.9 309.6 L 207.5 309.6 z M 209.2 293.2 L 209.2 255.89999999999998 C 209.2 248.2 215.39999999999998 241.99999999999997 223.1 241.99999999999997 L 223.1 241.99999999999997 C 230.79999999999998 241.99999999999997 237 248.19999999999996 237 255.89999999999998 L 237 293.2 C 237 300.9 230.8 307.09999999999997 223.1 307.09999999999997 L 223.1 307.09999999999997 C 215.5 307.1 209.2 300.9 209.2 293.2 z M 239.5 308.9 L 238 307.4 L 238 241.7 L 239.5 240.2 L 239.5 308.9 z M 238.8 239.5 L 237.3 241 L 209 241 L 207.5 239.5 L 238.8 239.5 z M 206.7 240.2 L 208.2 241.7 L 208.2 307.4 L 206.7 308.9 L 206.7 240.2 z" stroke-linecap="round" />
</g>
		<g transform="matrix(0.567334538247305 0 0 0.567334538247305 -15.204565625027783 -13.47419528337349)"  >
<path style="stroke: none; stroke-width: 1; stroke-dasharray: none; stroke-linecap: butt; stroke-dashoffset: 0; stroke-linejoin: miter; stroke-miterlimit: 4; fill: rgb(229,226,209); fill-rule: nonzero; opacity: 1;"  paint-order="stroke"  transform=" translate(-223.20000000000002, -226.25)" d="M 206.2 234.5 L 240.1 234.5 L 245.29999999999998 229 L 245.6 228.7 L 245.6 228 L 245.6 224.5 L 245.6 223.9 L 245.4 223.5 L 242.20000000000002 218 L 204.20000000000002 218 L 201.00000000000003 223.5 L 200.80000000000004 223.9 L 200.80000000000004 224.5 L 200.80000000000004 228 L 200.80000000000004 228.7 L 201.10000000000005 229 L 206.2 234.5 z M 239.6 233.5 L 206.6 233.5 L 202.4 229 L 243.9 229 L 239.6 233.5 z M 204.7 219.1 L 241.6 219.1 L 244.2 223.6 L 202.1 223.6 L 204.7 219.1 z" stroke-linecap="round" />
</g>
		<g transform="matrix(0.567334538247305 0 0 0.567334538247305 -15.204565625027783 23.43091642961369)"  >
<path style="stroke: none; stroke-width: 1; stroke-dasharray: none; stroke-linecap: butt; stroke-dashoffset: 0; stroke-linejoin: miter; stroke-miterlimit: 4; fill: rgb(229,226,209); fill-rule: nonzero; opacity: 1;"  paint-order="stroke"  transform=" translate(-223.2, -291.29999999999995)" d="M 225.2 287.2 C 225.2 286.09999999999997 224.29999999999998 285.2 223.2 285.2 C 222.1 285.2 221.2 286.09999999999997 221.2 287.2 C 219.29999999999998 288 217.89999999999998 289.9 217.89999999999998 292.09999999999997 C 217.89999999999998 294.99999999999994 220.29999999999998 297.4 223.2 297.4 C 226.1 297.4 228.5 295 228.5 292.09999999999997 C 228.4 289.9 227.1 288 225.2 287.2 z M 223.1 296.3 C 220.7 296.3 218.79999999999998 294.40000000000003 218.79999999999998 292 C 218.79999999999998 290.3 219.79999999999998 288.8 221.29999999999998 288.1 C 221.6 288.8 222.29999999999998 289.20000000000005 223.1 289.20000000000005 C 223.9 289.20000000000005 224.6 288.70000000000005 224.9 288.1 C 226.4 288.8 227.4 290.3 227.4 292 C 227.4 294.4 225.5 296.3 223.1 296.3 z" stroke-linecap="round" />
</g>
		<g transform="matrix(0.567334538247305 0 0 0.567334538247305 15.31803253267725 50.577874084747236)"  >
<path style="stroke: none; stroke-width: 1; stroke-dasharray: none; stroke-linecap: butt; stroke-dashoffset: 0; stroke-linejoin: miter; stroke-miterlimit: 4; fill: rgb(229,226,209); fill-rule: nonzero; opacity: 1;"  paint-order="stroke"  transform=" translate(-277, -339.15)" d="M 259.6 360.5 L 294.40000000000003 360.5 L 294.40000000000003 317.8 L 259.6 317.8 L 259.6 360.5 z M 292.6 318.8 L 291.1 320.3 L 262.70000000000005 320.3 L 261.20000000000005 318.8 L 292.6 318.8 z M 290.8 335.2 L 290.8 343.09999999999997 C 290.8 350.79999999999995 284.6 356.99999999999994 276.90000000000003 356.99999999999994 L 276.90000000000003 356.99999999999994 C 269.20000000000005 356.99999999999994 263.00000000000006 350.79999999999995 263.00000000000006 343.09999999999997 L 263.00000000000006 335.2 C 263.00000000000006 327.5 269.20000000000005 321.3 276.90000000000003 321.3 L 276.90000000000003 321.3 C 284.6 321.3 290.8 327.5 290.8 335.2 z M 260.6 319.5 L 262.1 321 L 262.1 358 L 291.90000000000003 358 L 291.90000000000003 321 L 293.40000000000003 319.5 L 293.40000000000003 359.5 L 260.6 359.5 L 260.6 319.5 z" stroke-linecap="round" />
</g>
		<g transform="matrix(0.567334538247305 0 0 0.567334538247305 15.31803253267725 13.928062913971331)"  >
<path style="stroke: none; stroke-width: 1; stroke-dasharray: none; stroke-linecap: butt; stroke-dashoffset: 0; stroke-linejoin: miter; stroke-miterlimit: 4; fill: rgb(229,226,209); fill-rule: nonzero; opacity: 1;"  paint-order="stroke"  transform=" translate(-277, -274.55)" d="M 259.6 310.6 L 294.40000000000003 310.6 L 294.40000000000003 238.50000000000003 L 259.6 238.50000000000003 L 259.6 310.6 z M 261.3 309.6 L 262.8 308.1 L 291.2 308.1 L 292.7 309.6 L 261.3 309.6 z M 263.1 293.2 L 263.1 255.89999999999998 C 263.1 248.2 269.3 241.99999999999997 277 241.99999999999997 L 277 241.99999999999997 C 284.7 241.99999999999997 290.9 248.19999999999996 290.9 255.89999999999998 L 290.9 293.2 C 290.9 300.9 284.7 307.09999999999997 277 307.09999999999997 L 277 307.09999999999997 C 269.3 307.1 263.1 300.9 263.1 293.2 z M 293.3 308.9 L 291.8 307.4 L 291.8 241.7 L 293.3 240.2 L 293.3 308.9 z M 292.6 239.5 L 291.1 241 L 262.70000000000005 241 L 261.20000000000005 239.5 L 292.6 239.5 z M 260.6 240.2 L 262.1 241.7 L 262.1 307.4 L 260.6 308.9 L 260.6 240.2 z" stroke-linecap="round" />
</g>
		<g transform="matrix(0.567334538247305 0 0 0.567334538247305 15.31803253267725 -13.47419528337349)"  >
<path style="stroke: none; stroke-width: 1; stroke-dasharray: none; stroke-linecap: butt; stroke-dashoffset: 0; stroke-linejoin: miter; stroke-miterlimit: 4; fill: rgb(229,226,209); fill-rule: nonzero; opacity: 1;"  paint-order="stroke"  transform=" translate(-277, -226.25)" d="M 260 234.5 L 293.9 234.5 L 299.09999999999997 229 L 299.4 228.7 L 299.4 228 L 299.4 224.5 L 299.4 223.9 L 299.2 223.5 L 296 218 L 258 218 L 254.8 223.5 L 254.60000000000002 223.9 L 254.60000000000002 224.5 L 254.60000000000002 228 L 254.60000000000002 228.7 L 254.90000000000003 229 L 260 234.5 z M 293.5 233.5 L 260.5 233.5 L 256.3 229 L 297.8 229 L 293.5 233.5 z M 258.5 219.1 L 295.4 219.1 L 298 223.6 L 255.9 223.6 L 258.5 219.1 z" stroke-linecap="round" />
</g>
		<g transform="matrix(0.567334538247305 0 0 0.567334538247305 15.31803253267725 23.43091642961369)"  >
<path style="stroke: none; stroke-width: 1; stroke-dasharray: none; stroke-linecap: butt; stroke-dashoffset: 0; stroke-linejoin: miter; stroke-miterlimit: 4; fill: rgb(229,226,209); fill-rule: nonzero; opacity: 1;"  paint-order="stroke"  transform=" translate(-277, -291.29999999999995)" d="M 279 287.2 C 279 286.09999999999997 278.1 285.2 277 285.2 C 275.9 285.2 275 286.09999999999997 275 287.2 C 273.1 288 271.7 289.9 271.7 292.09999999999997 C 271.7 294.99999999999994 274.09999999999997 297.4 277 297.4 C 279.90000000000003 297.4 282.3 295 282.3 292.09999999999997 C 282.2 289.9 280.9 288 279 287.2 z M 277 296.3 C 274.6 296.3 272.7 294.40000000000003 272.7 292 C 272.7 290.3 273.7 288.8 275.2 288.1 C 275.5 288.8 276.2 289.20000000000005 277 289.20000000000005 C 277.8 289.20000000000005 278.5 288.70000000000005 278.8 288.1 C 280.3 288.8 281.3 290.3 281.3 292 C 281.2 294.4 279.3 296.3 277 296.3 z" stroke-linecap="round" />
</g>
		<g transform="matrix(0.567334538247305 0 0 0.567334538247305 0 0)"  >
<path style="stroke: none; stroke-width: 1; stroke-dasharray: none; stroke-linecap: butt; stroke-dashoffset: 0; stroke-linejoin: miter; stroke-miterlimit: 4; fill: rgb(229,226,209); fill-rule: nonzero; opacity: 1;"  paint-order="stroke"  transform=" translate(-250, -250)" d="M 250 74.3 C 186.1 74.3 134 126.3 134 190.3 L 134 425.70000000000005 L 366 425.70000000000005 L 366 190.3 C 366 126.4 313.9 74.3 250 74.3 z M 365 424.7 L 135 424.7 L 135 190.3 C 135 126.9 186.6 75.30000000000001 250 75.30000000000001 C 313.4 75.30000000000001 365 126.9 365 190.3 L 365 424.7 z" stroke-linecap="round" />
</g>
		<g transform="matrix(0.567334538247305 0 0 0.567334538247305 0 0)"  >
<path style="stroke: none; stroke-width: 1; stroke-dasharray: none; stroke-linecap: butt; stroke-dashoffset: 0; stroke-linejoin: miter; stroke-miterlimit: 4; fill: rgb(229,226,209); fill-rule: nonzero; opacity: 1;"  paint-order="stroke"  transform=" translate(-250, -250)" d="M 250 78.3 C 188.3 78.3 138 128.5 138 190.3 L 138 421.1 L 138 421.70000000000005 L 162.2 421.70000000000005 L 188.29999999999998 421.70000000000005 L 311.7 421.70000000000005 L 337.8 421.70000000000005 L 362 421.70000000000005 L 362 421.1 L 362 190.3 C 362 128.6 311.7 78.3 250 78.3 z M 310.8 208.1 L 310.8 208.1 L 308.3 208.1 L 308.3 206 L 337.6 206 L 337.6 208.1 L 336 208.1 L 336 208.1 L 310.8 208.1 z M 184.1 325.3 L 184.1 221.4 L 188.9 209.1 L 191.8 209.1 L 191.8 363.2 L 187.5 363.2 L 187.5 330.4 L 187.5 325.29999999999995 L 184.1 325.3 L 184.1 325.3 z M 192.7 374.5 L 307.2 374.5 L 308.2 374.5 L 320 374.5 L 320 389.2 L 180 389.2 L 180 374.5 L 191.7 374.5 L 192.7 374.5 z M 192.7 373.5 L 192.7 363.2 L 192.7 189.4 C 192.7 157.8 218.39999999999998 132.10000000000002 250 132.10000000000002 C 281.6 132.10000000000002 307.3 157.8 307.3 189.40000000000003 L 307.3 205 L 307.3 209.1 L 307.3 363.2 L 307.3 373.5 L 192.7 373.5 z M 321 390.2 L 329.9 390.2 L 329.9 404.9 L 170.2 404.9 L 170.2 390.2 L 179.1 390.2 L 321 390.2 z M 308.3 373.5 L 308.3 368.5 C 308.3 366.1 310.2 364.2 312.6 364.2 L 312.6 364.2 L 334.3 364.2 L 334.3 364.2 C 336.7 364.2 338.6 366.09999999999997 338.6 368.5 L 338.6 373.5 L 321 373.5 L 308.3 373.5 z M 312.6 325.3 L 312.6 330.40000000000003 L 312.6 363.20000000000005 L 308.3 363.20000000000005 L 308.3 209.1 L 311.2 209.1 L 316 221.4 L 316 325.3 L 312.6 325.3 L 312.6 325.3 z M 323.4 330.4 L 323.4 330.4 C 328.79999999999995 330.4 333.2 334.79999999999995 333.2 340.2 L 333.2 363.2 L 313.5 363.2 L 313.5 340.2 C 313.6 334.8 318 330.4 323.4 330.4 z M 333.2 329.4 L 313.5 329.4 L 313.5 326.29999999999995 L 315.9 326.29999999999995 L 330.79999999999995 326.29999999999995 L 333.19999999999993 326.29999999999995 L 333.2 329.4 L 333.2 329.4 z M 316.9 318.8 L 316.9 228.20000000000002 C 316.9 224.60000000000002 319.79999999999995 221.70000000000002 323.4 221.70000000000002 L 323.4 221.70000000000002 C 327 221.70000000000002 329.9 224.60000000000002 329.9 228.20000000000002 L 329.9 318.8 C 329.9 322.40000000000003 327 325.3 323.4 325.3 L 323.4 325.3 C 319.8 325.3 316.9 322.4 316.9 318.8 z M 330 220.8 L 316.8 220.8 L 312.3 209.10000000000002 L 334.6 209.10000000000002 L 330 220.8 z M 319.1 205 L 319.1 205 C 313.1 205 308.3 200.2 308.3 194.2 L 308.3 190.29999999999998 C 308.3 158.29999999999998 282.90000000000003 131.59999999999997 250.9 131.2 C 218.4 130.7 191.7 157 191.7 189.5 L 191.7 194.3 C 191.7 200.3 186.89999999999998 205.10000000000002 180.89999999999998 205.10000000000002 L 180.89999999999998 205.10000000000002 C 174.89999999999998 205.10000000000002 170.09999999999997 200.3 170.09999999999997 194.3 L 170.09999999999997 193 C 170.09999999999997 149 205.19999999999996 112.6 249.19999999999996 112.1 C 293.59999999999997 111.69999999999999 329.79999999999995 147.7 329.79999999999995 191.89999999999998 L 329.79999999999995 194.29999999999998 C 329.9 200.2 325 205 319.1 205 z M 191.7 206 L 191.7 208.1 L 189.2 208.1 L 164 208.1 L 161.5 208.1 L 161.5 206 L 191.7 206 z M 187.8 209.1 L 183.3 220.79999999999998 L 170 220.79999999999998 L 165.5 209.1 L 187.8 209.1 z M 183.1 228.3 L 183.1 318.9 C 183.1 322.5 180.2 325.4 176.6 325.4 L 176.6 325.4 C 173 325.4 170.1 322.5 170.1 318.9 L 170.1 228.29999999999998 C 170.1 224.7 173 221.79999999999998 176.6 221.79999999999998 L 176.6 221.79999999999998 C 180.2 221.8 183.1 224.7 183.1 228.3 z M 184.1 326.3 L 186.5 326.3 L 186.5 329.40000000000003 L 166.8 329.40000000000003 L 166.8 326.3 L 169.20000000000002 326.3 L 184.1 326.3 z M 186.5 340.2 L 186.5 363.2 L 166.8 363.2 L 166.8 340.2 C 166.8 334.8 171.20000000000002 330.4 176.60000000000002 330.4 L 176.60000000000002 330.4 C 182.1 330.4 186.5 334.8 186.5 340.2 z M 187.5 364.2 L 187.5 364.2 C 189.9 364.2 191.8 366.09999999999997 191.8 368.5 L 191.8 373.5 L 179 373.5 L 161.5 373.5 L 161.5 368.5 C 161.5 366.1 163.4 364.2 165.8 364.2 L 165.8 364.2 L 187.5 364.2 z M 336.8 420.7 L 311.7 420.7 L 188.3 420.7 L 163.20000000000002 420.7 L 163.20000000000002 406 L 169.10000000000002 406 L 330.8 406 L 336.7 406 L 336.7 420.7 L 336.8 420.7 z M 361 419 L 339.5 374 L 339.5 363.2 L 334.2 363.2 L 334.2 330.4 L 334.2 325.29999999999995 L 330.8 325.29999999999995 L 330.8 221.4 L 335.6 209.1 L 338.5 209.1 L 338.5 205 L 330.8 205 L 330.8 191.9 C 330.8 147.3 294.5 111.10000000000001 250 111.10000000000001 C 205.5 111.10000000000001 169.2 147.4 169.2 191.9 L 169.2 205 L 160.5 205 L 160.5 209.1 L 164.4 209.1 L 169.20000000000002 221.4 L 169.20000000000002 325.3 L 165.8 325.3 L 165.8 330.40000000000003 L 165.8 363.20000000000005 L 160.5 363.20000000000005 L 160.5 373.90000000000003 L 139 419 L 139 190.3 C 139 129.10000000000002 188.8 79.30000000000001 250 79.30000000000001 C 311.2 79.30000000000001 361 129.10000000000002 361 190.3 L 361 419 z" stroke-linecap="round" />
</g>
</g>
</g>
<g transform="matrix(0.044974552282522284 -3.0347167738556657 3.0347167738556666 0.044974552282522305 26.04763534389167 631.1168137299935)" id="text-logo-0"  >
<g style=""  paint-order="stroke"   >
		<g transform="matrix(1 0 0 1 0 0)" id="7c7d9408-5515-4fa8-b532-2adbce12e114-path-0"  >
<path style="stroke: none; stroke-width: 0; stroke-dasharray: none; stroke-linecap: butt; stroke-dashoffset: 0; stroke-linejoin: miter; stroke-miterlimit: 4; fill: rgb(229,226,209); fill-rule: nonzero; opacity: 1;"  paint-order="stroke"  transform=" translate(-7.8, 8.180000000000001)" d="M 4.47 0 Q 3.67 0 2.73 0.13 Q 1.79 0.26 1.51 0.31 L 1.51 0.31 L 1.66 -0.88 Q 2.86 -1.12 3.28 -1.57 Q 3.69 -2.03 3.69 -3.12 L 3.69 -3.12 L 3.72 -14.04 Q 3.72 -14.87 3.52 -15.16 Q 3.33 -15.44 2.76 -15.44 L 2.76 -15.44 Q 2.5 -15.44 2.24 -15.42 Q 1.98 -15.39 1.87 -15.39 L 1.87 -15.39 L 1.82 -15.5 L 2 -16.64 Q 2.31 -16.61 3.17 -16.59 Q 4.03 -16.56 4.89 -16.56 L 4.89 -16.56 Q 5.77 -16.56 6.7 -16.6 Q 7.62 -16.64 7.96 -16.67 L 7.96 -16.67 Q 10.43 -16.67 11.75 -15.64 Q 13.08 -14.61 13.08 -12.71 L 13.08 -12.71 Q 13.08 -11.41 12.29 -10.37 Q 11.49 -9.33 10.06 -8.71 L 10.06 -8.71 Q 11.96 -8.29 13.03 -7.25 Q 14.09 -6.21 14.09 -4.76 L 14.09 -4.76 Q 14.09 -3.43 13.25 -2.28 Q 12.4 -1.12 11 -0.43 Q 9.59 0.26 7.98 0.26 L 7.98 0.26 Q 7.28 0.26 6.37 0.13 L 6.37 0.13 Q 4.89 0 4.47 0 L 4.47 0 Z M 5.69 -9.13 Q 6.08 -9.1 7.01 -9.02 Q 7.93 -8.94 8.53 -8.92 L 8.53 -8.92 Q 8.53 -8.84 9.2 -9.19 Q 9.88 -9.54 10.43 -10.28 Q 10.97 -11.02 10.97 -12.27 L 10.97 -12.27 Q 10.97 -13.94 9.85 -14.74 Q 8.74 -15.55 6.4 -15.55 L 6.4 -15.55 Q 6.14 -15.55 6.05 -15.43 Q 5.95 -15.31 5.93 -14.95 L 5.93 -14.95 Q 5.77 -12.45 5.69 -9.13 L 5.69 -9.13 Z M 5.64 -7.75 L 5.54 -2.89 Q 5.54 -1.9 6.21 -1.48 Q 6.89 -1.07 8.5 -1.07 L 8.5 -1.07 Q 10.06 -1.07 10.96 -1.94 Q 11.86 -2.81 11.86 -4.29 L 11.86 -4.29 Q 11.86 -5.69 10.97 -6.59 Q 10.09 -7.49 8.35 -7.8 L 8.35 -7.8 L 5.64 -7.75 Z" stroke-linecap="round" />
</g>
</g>
</g>
<g transform="matrix(0.3655358712050744 -3.0129573735345643 3.0129573735345643 0.3655358712050744 30.056902707506083 566.3593304429714)" id="text-logo-1"  >
<g style=""  paint-order="stroke"   >
		<g transform="matrix(1 0 0 1 0 0)" id="ec95a839-b0bf-42f5-bf2c-a6aca3d04808-path-0"  >
<path style="stroke: none; stroke-width: 0; stroke-dasharray: none; stroke-linecap: butt; stroke-dashoffset: 0; stroke-linejoin: miter; stroke-miterlimit: 4; fill: rgb(229,226,209); fill-rule: nonzero; opacity: 1;"  paint-order="stroke"  transform=" translate(-7.67, 8.305)" d="M 13.75 -4.47 L 13.83 -4.34 Q 13.39 -2.24 13.13 0.03 L 13.13 0.03 L 13 0.18 Q 7.54 0 5.12 0 L 5.12 0 Q 3.2 0 1.51 0.26 L 1.51 0.26 L 1.66 -0.94 Q 2.83 -1.09 3.26 -1.55 Q 3.69 -2 3.69 -3.12 L 3.69 -3.12 L 3.72 -14.04 Q 3.72 -14.87 3.52 -15.16 Q 3.33 -15.44 2.76 -15.44 L 2.76 -15.44 L 1.87 -15.39 L 1.82 -15.5 L 2 -16.64 Q 4.65 -16.56 5.62 -16.56 L 5.62 -16.56 Q 8.71 -16.56 10.43 -16.63 Q 12.14 -16.69 13.42 -16.87 L 13.42 -16.87 L 13.49 -16.72 Q 13.03 -14.66 12.9 -12.4 L 12.9 -12.4 L 11.65 -12.3 L 11.7 -13.42 Q 11.7 -14.33 11.47 -14.68 Q 11.23 -15.03 10.45 -15.15 Q 9.67 -15.26 7.72 -15.26 L 7.72 -15.26 Q 6.81 -15.26 6.47 -15.21 Q 6.14 -15.16 6.03 -14.96 Q 5.93 -14.77 5.9 -14.25 L 5.9 -14.25 L 5.69 -9.2 L 8.37 -9.18 Q 9.39 -9.18 11.54 -9.46 L 11.54 -9.46 L 11.65 -9.33 L 11.28 -7.8 Q 8.4 -7.88 7.64 -7.88 L 7.64 -7.88 Q 6.79 -7.88 5.64 -7.7 L 5.64 -7.7 L 5.54 -2.73 Q 5.54 -1.98 5.67 -1.68 Q 5.8 -1.38 6.2 -1.27 Q 6.6 -1.17 7.59 -1.17 L 7.59 -1.17 Q 9.78 -1.17 10.7 -1.38 Q 11.62 -1.59 12.01 -2.21 Q 12.4 -2.83 12.61 -4.34 L 12.61 -4.34 L 13.75 -4.47 Z" stroke-linecap="round" />
</g>
</g>
</g>
<g transform="matrix(0.6794371518548995 -2.958021934427339 2.9580219344273404 0.6794371518548998 41.117145000660344 503.0787939574003)" id="text-logo-2"  >
<g style=""  paint-order="stroke"   >
		<g transform="matrix(1 0 0 1 0 0)" id="7d7e029a-2fe0-4185-9654-d454fad73a2c-path-0"  >
<path style="stroke: none; stroke-width: 0; stroke-dasharray: none; stroke-linecap: butt; stroke-dashoffset: 0; stroke-linejoin: miter; stroke-miterlimit: 4; fill: rgb(229,226,209); fill-rule: nonzero; opacity: 1;"  paint-order="stroke"  transform=" translate(-7.525, 8.305)" d="M 8.63 0.26 L 8.55 0.08 L 8.66 -0.94 Q 9.98 -1.04 10.48 -1.25 Q 10.97 -1.46 10.97 -1.92 L 10.97 -1.92 Q 10.97 -2.44 10.74 -3.17 L 10.74 -3.17 L 9.88 -6.01 Q 9.26 -6.03 7.18 -6.03 L 7.18 -6.03 Q 5.93 -6.03 4.34 -5.82 L 4.34 -5.82 L 3.38 -3.12 Q 3.15 -2.42 3.15 -2.11 L 3.15 -2.11 Q 3.15 -1.53 3.51 -1.29 Q 3.87 -1.04 4.71 -1.04 L 4.71 -1.04 L 6.19 -1.04 L 6.24 -0.94 L 6.08 0.18 Q 5.77 0.16 4.65 0.08 Q 3.54 0 2.47 0 L 2.47 0 Q 1.51 0 0.69 0.03 Q -0.13 0.05 -0.39 0.08 L -0.39 0.08 L -0.18 -1.14 Q 0.55 -1.22 0.99 -1.65 Q 1.43 -2.08 1.85 -3.15 L 1.85 -3.15 L 6.92 -16.43 L 8.55 -16.87 L 8.76 -16.87 Q 8.92 -16.25 9.56 -13.99 Q 10.19 -11.73 11.12 -8.63 Q 12.04 -5.54 12.9 -2.94 L 12.9 -2.94 Q 13.21 -1.98 13.73 -1.59 Q 14.25 -1.2 15.39 -1.09 L 15.39 -1.09 L 15.44 -0.99 L 15.26 0.08 Q 14.95 0.08 14.13 0.04 Q 13.31 0 12.51 0 L 12.51 0 Q 11.26 0 10.1 0.1 Q 8.94 0.21 8.63 0.26 L 8.63 0.26 Z M 4.81 -7.1 L 7.1 -7.1 Q 8.03 -7.1 9.52 -7.23 L 9.52 -7.23 L 7.46 -14.04 L 7.28 -14.04 L 4.81 -7.1 Z" stroke-linecap="round" />
</g>
</g>
</g>
<g transform="matrix(0.9888329411433896 -2.8694490799426413 2.8694490799426413 0.9888329411433896 59.0619537831858 440.5785994580404)" id="text-logo-3"  >
<g style=""  paint-order="stroke"   >
		<g transform="matrix(1 0 0 1 0 0)" id="3e2f6de7-8ff6-4683-a1aa-fd74006651f7-path-0"  >
<path style="stroke: none; stroke-width: 0; stroke-dasharray: none; stroke-linecap: butt; stroke-dashoffset: 0; stroke-linejoin: miter; stroke-miterlimit: 4; fill: rgb(229,226,209); fill-rule: nonzero; opacity: 1;"  paint-order="stroke"  transform=" translate(-8.02, 8.280000000000001)" d="M 8.81 0.31 Q 6.47 0.31 4.71 -0.68 Q 2.94 -1.66 1.99 -3.47 Q 1.04 -5.28 1.04 -7.72 L 1.04 -7.72 Q 1.04 -10.32 2.21 -12.42 Q 3.38 -14.51 5.45 -15.69 Q 7.51 -16.87 10.11 -16.87 L 10.11 -16.87 Q 11.08 -16.87 12.08 -16.73 Q 13.08 -16.59 13.77 -16.45 Q 14.46 -16.3 14.64 -16.25 L 14.64 -16.25 L 14.74 -16.09 Q 14.69 -15.94 14.57 -15.34 Q 14.46 -14.74 14.31 -13.78 Q 14.17 -12.82 14.09 -11.75 L 14.09 -11.75 L 12.84 -11.65 Q 12.87 -11.78 12.9 -12.13 Q 12.92 -12.48 12.92 -12.92 L 12.92 -12.92 Q 12.92 -15.34 9.1 -15.34 L 9.1 -15.34 Q 7.38 -15.34 6.08 -14.51 Q 4.78 -13.68 4.08 -12.16 Q 3.38 -10.63 3.38 -8.58 L 3.38 -8.58 Q 3.38 -6.32 4.12 -4.6 Q 4.86 -2.89 6.21 -1.94 Q 7.57 -0.99 9.33 -0.99 L 9.33 -0.99 Q 11.1 -0.99 12.18 -1.99 Q 13.26 -2.99 13.75 -5.1 L 13.75 -5.1 L 15 -5.2 Q 14.92 -4.81 14.66 -3.47 Q 14.4 -2.13 14.3 -0.96 L 14.3 -0.96 L 14.14 -0.73 Q 14.14 -0.7 13.35 -0.43 Q 12.56 -0.16 11.38 0.08 Q 10.19 0.31 8.81 0.31 L 8.81 0.31 Z" stroke-linecap="round" />
</g>
</g>
</g>
<g transform="matrix(1.306612521849301 -2.739396343288163 2.7393963432881634 1.306612521849301 85.46725781575333 376.01014061648874)" id="text-logo-4"  >
<g style=""  paint-order="stroke"   >
		<g transform="matrix(1 0 0 1 0 0)" id="3993ae1e-ca3c-418c-a0cd-eb4235b4cad5-path-0"  >
<path style="stroke: none; stroke-width: 0; stroke-dasharray: none; stroke-linecap: butt; stroke-dashoffset: 0; stroke-linejoin: miter; stroke-miterlimit: 4; fill: rgb(229,226,209); fill-rule: nonzero; opacity: 1;"  paint-order="stroke"  transform=" translate(-8.995000000000001, 8.280000000000001)" d="M 8.24 0.31 Q 6.14 0.31 4.5 -0.7 Q 2.86 -1.72 1.95 -3.55 Q 1.04 -5.38 1.04 -7.72 L 1.04 -7.72 Q 1.04 -10.27 2.17 -12.36 Q 3.3 -14.46 5.27 -15.67 Q 7.23 -16.87 9.59 -16.87 L 9.59 -16.87 Q 11.75 -16.87 13.42 -15.86 Q 15.08 -14.85 16.02 -13.03 Q 16.95 -11.21 16.95 -8.87 L 16.95 -8.87 Q 16.95 -6.32 15.8 -4.21 Q 14.64 -2.11 12.65 -0.9 Q 10.66 0.31 8.24 0.31 L 8.24 0.31 Z M 9.05 -1.01 Q 10.69 -1.01 11.96 -1.87 Q 13.23 -2.73 13.94 -4.26 Q 14.64 -5.8 14.64 -7.77 L 14.64 -7.77 Q 14.64 -9.98 13.88 -11.69 Q 13.13 -13.39 11.79 -14.35 Q 10.45 -15.31 8.71 -15.31 L 8.71 -15.31 Q 7.12 -15.31 5.89 -14.46 Q 4.65 -13.6 3.97 -12.06 Q 3.28 -10.53 3.28 -8.55 L 3.28 -8.55 Q 3.28 -6.34 4 -4.64 Q 4.73 -2.94 6.05 -1.98 Q 7.36 -1.01 9.05 -1.01 L 9.05 -1.01 Z" stroke-linecap="round" />
</g>
</g>
</g>
<g transform="matrix(1.6290321557478855 -2.5608168312890607 2.560816831289061 1.6290321557478857 123.0863552076313 310.7826452860776)" id="text-logo-5"  >
<g style=""  paint-order="stroke"   >
		<g transform="matrix(1 0 0 1 0 -8.8818e-16)" id="60617327-bf71-422d-b06a-7a12ee220548-path-0"  >
<path style="stroke: none; stroke-width: 0; stroke-dasharray: none; stroke-linecap: butt; stroke-dashoffset: 0; stroke-linejoin: miter; stroke-miterlimit: 4; fill: rgb(229,226,209); fill-rule: nonzero; opacity: 1;"  paint-order="stroke"  transform=" translate(-9.620000000000001, 7.865)" d="M 14.82 1.04 Q 12.56 -2.47 10.41 -5.66 Q 8.27 -8.84 6.89 -10.8 Q 5.51 -12.77 5.15 -13.29 L 5.15 -13.29 L 5.02 -13.29 L 4.89 -2.18 Q 4.89 -1.61 5.07 -1.38 Q 5.25 -1.14 5.69 -1.14 L 5.69 -1.14 L 7.02 -1.17 L 7.07 -1.07 L 6.84 0.1 Q 6.55 0.08 5.67 0.04 Q 4.78 0 4.08 0 L 4.08 0 Q 3.43 0 2.67 0.09 Q 1.9 0.18 1.66 0.21 L 1.66 0.21 L 1.79 -0.99 Q 2.6 -1.09 2.99 -1.47 Q 3.38 -1.85 3.41 -2.63 L 3.41 -2.63 L 3.74 -13.99 Q 3.74 -14.79 3.26 -15.13 Q 2.78 -15.47 1.48 -15.6 L 1.48 -15.6 L 1.4 -15.73 L 1.61 -16.69 Q 1.85 -16.67 2.63 -16.61 Q 3.41 -16.56 3.85 -16.56 L 3.85 -16.56 Q 4.39 -16.56 4.91 -16.6 Q 5.43 -16.64 5.59 -16.67 L 5.59 -16.67 Q 7.51 -13.68 9.45 -10.82 Q 11.39 -7.96 12.69 -6.11 Q 13.99 -4.26 14.33 -3.77 L 14.33 -3.77 L 14.46 -3.77 L 14.46 -14.3 Q 14.46 -15.42 13.6 -15.42 L 13.6 -15.42 L 12.61 -15.39 L 12.56 -15.5 L 12.79 -16.67 Q 13.05 -16.64 13.78 -16.6 Q 14.51 -16.56 15.26 -16.56 L 15.26 -16.56 Q 15.94 -16.56 16.76 -16.65 Q 17.58 -16.74 17.84 -16.77 L 17.84 -16.77 L 17.71 -15.57 Q 16.8 -15.44 16.38 -15.07 Q 15.96 -14.69 15.94 -13.94 L 15.94 -13.94 L 15.57 0.68 L 14.82 1.04 Z" stroke-linecap="round" />
</g>
</g>
</g>
<g transform="matrix(0.608175171660863 -0.7938028474220028 0.7938028474220029 0.6081751716608631 171.93453824574954 165.529312921183)" id="text-logo-6"  >
<g style=""  paint-order="stroke"   >
		<g transform="matrix(1 0 0 1 0 0)" id="7b247b64-543e-4f06-aeab-fcd5dab6ecbe-path-0"  >
<path style="stroke: none; stroke-width: 0; stroke-dasharray: none; stroke-linecap: butt; stroke-dashoffset: 0; stroke-linejoin: miter; stroke-miterlimit: 4; fill: rgb(229,226,209); fill-rule: nonzero; opacity: 1;"  paint-order="stroke"  transform=" translate(0, 0)" d="" stroke-linecap="round" />
</g>
</g>
</g>
<g transform="matrix(2.0540565563817164 -2.234363504682986 2.234363504682986 2.0540565563817164 187.7235175255197 224.8678378190105)" id="text-logo-7"  >
<g style=""  paint-order="stroke"   >
		<g transform="matrix(1 0 0 1 0 3.55271e-15)" id="37301577-c316-47a8-9e11-4970d00c26b0-path-0"  >
<path style="stroke: none; stroke-width: 0; stroke-dasharray: none; stroke-linecap: butt; stroke-dashoffset: 0; stroke-linejoin: miter; stroke-miterlimit: 4; fill: rgb(229,226,209); fill-rule: nonzero; opacity: 1;"  paint-order="stroke"  transform=" translate(-9.815, 8.245000000000001)" d="M 1.51 0.31 L 1.66 -0.88 Q 2.86 -1.12 3.28 -1.57 Q 3.69 -2.03 3.69 -3.12 L 3.69 -3.12 L 3.72 -14.04 Q 3.72 -14.87 3.52 -15.16 Q 3.33 -15.44 2.76 -15.44 L 2.76 -15.44 L 1.87 -15.39 L 1.82 -15.5 L 2 -16.64 Q 2.34 -16.64 2.52 -16.61 L 2.52 -16.61 Q 4.08 -16.56 4.89 -16.56 L 4.89 -16.56 Q 5.98 -16.56 7.67 -16.8 L 7.67 -16.8 L 7.57 -15.63 Q 6.79 -15.5 6.46 -15.31 Q 6.14 -15.13 6.02 -14.7 Q 5.9 -14.27 5.85 -13.29 L 5.85 -13.29 L 5.69 -9.07 L 10.06 -9.05 Q 11.7 -9.05 13.91 -9.31 L 13.91 -9.31 L 13.94 -14.04 Q 13.94 -14.87 13.74 -15.16 Q 13.55 -15.44 12.97 -15.44 L 12.97 -15.44 Q 12.61 -15.44 12.09 -15.39 L 12.09 -15.39 L 12.04 -15.5 L 12.22 -16.64 Q 12.51 -16.61 13.26 -16.59 Q 14.01 -16.56 14.77 -16.56 L 14.77 -16.56 Q 16.02 -16.56 17.89 -16.8 L 17.89 -16.8 L 17.78 -15.63 Q 16.82 -15.5 16.48 -15.2 Q 16.15 -14.9 16.12 -14.14 L 16.12 -14.14 Q 15.96 -11.21 15.86 -7.84 Q 15.76 -4.47 15.76 -2.76 L 15.76 -2.76 Q 15.76 -1.79 15.99 -1.47 Q 16.22 -1.14 16.9 -1.14 L 16.9 -1.14 Q 17.21 -1.14 18.07 -1.22 L 18.07 -1.22 L 18.12 -1.12 L 17.89 0.08 Q 17.52 0.08 17.32 0.05 L 17.32 0.05 Q 15.6 0 14.69 0 L 14.69 0 L 11.7 0.05 L 11.93 -1.12 Q 12.79 -1.14 13.2 -1.35 Q 13.6 -1.56 13.75 -2.13 Q 13.91 -2.7 13.91 -3.9 L 13.91 -3.9 L 13.91 -7.83 L 9.96 -7.85 Q 9.31 -7.83 8.14 -7.76 Q 6.97 -7.7 5.64 -7.57 L 5.64 -7.57 L 5.54 -2.91 Q 5.54 -1.85 5.77 -1.5 Q 6.01 -1.14 6.68 -1.14 L 6.68 -1.14 Q 6.99 -1.14 7.85 -1.22 L 7.85 -1.22 L 7.9 -1.12 L 7.67 0.08 Q 7.44 0.05 6.79 0.03 Q 6.14 0 5.46 0 L 5.46 0 Q 4.26 0 2.9 0.1 Q 1.53 0.21 1.51 0.31 L 1.51 0.31 Z" stroke-linecap="round" />
</g>
</g>
</g>
<g transform="matrix(2.2686449165485403 -2.016129671051052 2.016129671051052 2.2686449165485403 232.0984911358073 181.26142382063497)" id="text-logo-8"  >
<g style=""  paint-order="stroke"   >
		<g transform="matrix(1 0 0 1 0 0)" id="0a26c0c5-4cae-4e53-b9b0-9dab47c2c7dc-path-0"  >
<path style="stroke: none; stroke-width: 0; stroke-dasharray: none; stroke-linecap: butt; stroke-dashoffset: 0; stroke-linejoin: miter; stroke-miterlimit: 4; fill: rgb(229,226,209); fill-rule: nonzero; opacity: 1;"  paint-order="stroke"  transform=" translate(-4.785, 8.245000000000001)" d="M 1.46 0.31 L 1.61 -0.88 Q 2.83 -1.12 3.26 -1.57 Q 3.69 -2.03 3.69 -3.12 L 3.69 -3.12 L 3.72 -14.04 Q 3.72 -14.87 3.52 -15.16 Q 3.33 -15.44 2.76 -15.44 L 2.76 -15.44 L 1.66 -15.39 L 1.61 -15.5 L 1.79 -16.64 Q 2.21 -16.64 2.44 -16.61 L 2.44 -16.61 L 4.89 -16.56 Q 6.06 -16.56 7.88 -16.8 L 7.88 -16.8 L 7.77 -15.63 Q 6.71 -15.5 6.33 -15.2 Q 5.95 -14.9 5.9 -14.14 L 5.9 -14.14 Q 5.75 -11.1 5.64 -7.79 Q 5.54 -4.47 5.54 -2.91 L 5.54 -2.91 Q 5.54 -1.85 5.77 -1.5 Q 6.01 -1.14 6.68 -1.14 L 6.68 -1.14 Q 7.12 -1.14 8.06 -1.22 L 8.06 -1.22 L 8.11 -1.12 L 7.88 0.08 Q 7.51 0.08 7.31 0.05 L 7.31 0.05 Q 5.49 0 4.47 0 L 4.47 0 Q 3.2 0 1.46 0.31 L 1.46 0.31 Z" stroke-linecap="round" />
</g>
</g>
</g>
<g transform="matrix(2.4293004524760504 -1.8193482128151306 1.8193482128151306 2.4293004524760504 273.6886602985487 147.36442914224702)" id="text-logo-9"  >
<g style=""  paint-order="stroke"   >
		<g transform="matrix(1 0 0 1 -1.421085e-14 0)" id="b4087c2d-a458-4ba3-918d-1f069d531d6b-path-0"  >
<path style="stroke: none; stroke-width: 0; stroke-dasharray: none; stroke-linecap: butt; stroke-dashoffset: 0; stroke-linejoin: miter; stroke-miterlimit: 4; fill: rgb(229,226,209); fill-rule: nonzero; opacity: 1;"  paint-order="stroke"  transform=" translate(-7.450000000000001, 8.27)" d="M 1.77 0.26 L 1.92 -0.94 Q 2.94 -1.09 3.32 -1.55 Q 3.69 -2 3.69 -3.12 L 3.69 -3.12 L 3.72 -14.04 Q 3.72 -14.87 3.52 -15.16 Q 3.33 -15.44 2.76 -15.44 L 2.76 -15.44 Q 2.5 -15.44 2.24 -15.42 Q 1.98 -15.39 1.87 -15.39 L 1.87 -15.39 L 1.82 -15.5 L 2 -16.64 Q 2.31 -16.61 3.17 -16.59 Q 4.03 -16.56 4.91 -16.56 L 4.91 -16.56 Q 5.62 -16.56 6.51 -16.65 Q 7.41 -16.74 7.7 -16.8 L 7.7 -16.8 L 7.59 -15.63 Q 6.73 -15.52 6.41 -15.29 Q 6.08 -15.05 6.02 -14.74 Q 5.95 -14.43 5.88 -13.21 L 5.88 -13.21 Q 5.72 -11 5.64 -8.16 Q 5.56 -5.33 5.56 -3.17 L 5.56 -3.17 Q 5.56 -2.24 5.72 -1.83 Q 5.88 -1.43 6.31 -1.3 Q 6.73 -1.17 7.77 -1.17 L 7.77 -1.17 Q 9.36 -1.17 10.1 -1.43 Q 10.84 -1.69 11.22 -2.44 Q 11.6 -3.2 11.91 -4.86 L 11.91 -4.86 L 13.05 -4.99 L 13.13 -4.86 Q 13.05 -4.45 12.81 -2.99 Q 12.56 -1.53 12.38 0.08 L 12.38 0.08 L 12.25 0.23 Q 11.49 0.18 9.14 0.09 Q 6.79 0 5.25 0 L 5.25 0 Q 4.03 0 3.03 0.1 Q 2.03 0.21 1.77 0.26 L 1.77 0.26 Z" stroke-linecap="round" />
</g>
</g>
</g>
<g transform="matrix(2.5848646431219784 -1.5905984360019458 1.5905984360019465 2.58486464312198 320.0891479562235 116.08652948376778)" id="text-logo-10"  >
<g style=""  paint-order="stroke"   >
		<g transform="matrix(1 0 0 1 0 0)" id="0949fae9-4c90-41a4-a4c7-66df0afece7e-path-0"  >
<path style="stroke: none; stroke-width: 0; stroke-dasharray: none; stroke-linecap: butt; stroke-dashoffset: 0; stroke-linejoin: miter; stroke-miterlimit: 4; fill: rgb(229,226,209); fill-rule: nonzero; opacity: 1;"  paint-order="stroke"  transform=" translate(-7.450000000000001, 8.27)" d="M 1.77 0.26 L 1.92 -0.94 Q 2.94 -1.09 3.32 -1.55 Q 3.69 -2 3.69 -3.12 L 3.69 -3.12 L 3.72 -14.04 Q 3.72 -14.87 3.52 -15.16 Q 3.33 -15.44 2.76 -15.44 L 2.76 -15.44 Q 2.5 -15.44 2.24 -15.42 Q 1.98 -15.39 1.87 -15.39 L 1.87 -15.39 L 1.82 -15.5 L 2 -16.64 Q 2.31 -16.61 3.17 -16.59 Q 4.03 -16.56 4.91 -16.56 L 4.91 -16.56 Q 5.62 -16.56 6.51 -16.65 Q 7.41 -16.74 7.7 -16.8 L 7.7 -16.8 L 7.59 -15.63 Q 6.73 -15.52 6.41 -15.29 Q 6.08 -15.05 6.02 -14.74 Q 5.95 -14.43 5.88 -13.21 L 5.88 -13.21 Q 5.72 -11 5.64 -8.16 Q 5.56 -5.33 5.56 -3.17 L 5.56 -3.17 Q 5.56 -2.24 5.72 -1.83 Q 5.88 -1.43 6.31 -1.3 Q 6.73 -1.17 7.77 -1.17 L 7.77 -1.17 Q 9.36 -1.17 10.1 -1.43 Q 10.84 -1.69 11.22 -2.44 Q 11.6 -3.2 11.91 -4.86 L 11.91 -4.86 L 13.05 -4.99 L 13.13 -4.86 Q 13.05 -4.45 12.81 -2.99 Q 12.56 -1.53 12.38 0.08 L 12.38 0.08 L 12.25 0.23 Q 11.49 0.18 9.14 0.09 Q 6.79 0 5.25 0 L 5.25 0 Q 4.03 0 3.03 0.1 Q 2.03 0.21 1.77 0.26 L 1.77 0.26 Z" stroke-linecap="round" />
</g>
</g>
</g>
<g transform="matrix(0.8873764059926025 -0.46104567462199664 0.46104567462199664 0.8873764059926025 237.2139748076253 112.22144929347351)" id="text-logo-11"  >
<g style=""  paint-order="stroke"   >
		<g transform="matrix(1 0 0 1 0 0)" id="0d631027-a1db-4789-8595-c12c242d4a37-path-0"  >
<path style="stroke: none; stroke-width: 0; stroke-dasharray: none; stroke-linecap: butt; stroke-dashoffset: 0; stroke-linejoin: miter; stroke-miterlimit: 4; fill: rgb(229,226,209); fill-rule: nonzero; opacity: 1;"  paint-order="stroke"  transform=" translate(0, 0)" d="" stroke-linecap="round" />
</g>
</g>
</g>
<g transform="matrix(2.790991505007769 -1.1924323992782242 1.1924323992782246 2.7909915050077703 399.9625946898123 75.22162698361035)" id="text-logo-12"  >
<g style=""  paint-order="stroke"   >
		<g transform="matrix(1 0 0 1 0 0)" id="8941e9de-08e7-456d-82d7-b632a461d88d-path-0"  >
<path style="stroke: none; stroke-width: 0; stroke-dasharray: none; stroke-linecap: butt; stroke-dashoffset: 0; stroke-linejoin: miter; stroke-miterlimit: 4; fill: rgb(229,226,209); fill-rule: nonzero; opacity: 1;"  paint-order="stroke"  transform=" translate(-7.685, 8.23)" d="M 1.64 0.21 L 1.82 -0.99 Q 2.96 -1.2 3.33 -1.6 Q 3.69 -2 3.69 -3.12 L 3.69 -3.12 L 3.72 -14.04 Q 3.72 -14.87 3.52 -15.16 Q 3.33 -15.44 2.76 -15.44 L 2.76 -15.44 Q 2.5 -15.44 2.24 -15.42 Q 1.98 -15.39 1.87 -15.39 L 1.87 -15.39 L 1.82 -15.5 L 2 -16.64 Q 2.31 -16.61 3.17 -16.59 Q 4.03 -16.56 4.89 -16.56 L 4.89 -16.56 Q 5.69 -16.56 6.72 -16.6 Q 7.75 -16.64 8.16 -16.67 L 8.16 -16.67 Q 10.87 -16.67 12.3 -15.47 Q 13.73 -14.27 13.73 -12.04 L 13.73 -12.04 Q 13.73 -10.58 12.88 -9.27 Q 12.04 -7.96 10.66 -7.15 Q 9.28 -6.34 7.77 -6.34 L 7.77 -6.34 L 5.59 -6.34 L 5.54 -3.8 Q 5.54 -2.55 5.62 -2.02 Q 5.69 -1.48 5.92 -1.31 Q 6.14 -1.14 6.68 -1.14 L 6.68 -1.14 Q 7.12 -1.14 7.53 -1.17 Q 7.93 -1.2 8.09 -1.22 L 8.09 -1.22 L 8.14 -1.12 L 7.9 0.08 Q 7.64 0.05 6.96 0.03 Q 6.27 0 5.51 0 L 5.51 0 Q 4.47 0 3.08 0.08 Q 1.69 0.16 1.64 0.21 L 1.64 0.21 Z M 8.4 -7.49 Q 9.96 -7.75 10.75 -8.76 Q 11.54 -9.78 11.54 -11.54 L 11.54 -11.54 Q 11.54 -13.55 10.36 -14.47 Q 9.18 -15.39 6.66 -15.39 L 6.66 -15.39 Q 6.19 -15.39 6.08 -15.34 Q 5.98 -15.29 5.95 -15.03 L 5.95 -15.03 Q 5.72 -11.73 5.64 -7.88 L 5.64 -7.88 L 8.4 -7.49 Z" stroke-linecap="round" />
</g>
</g>
</g>
<g transform="matrix(2.8997059364558417 -0.8962332787598899 0.8962332787598899 2.8997059364558417 460.36030699630135 53.588252025922486)" id="text-logo-13"  >
<g style=""  paint-order="stroke"   >
		<g transform="matrix(1 0 0 1 0 0)" id="88ff317b-e223-4107-a756-d328470cc30c-path-0"  >
<path style="stroke: none; stroke-width: 0; stroke-dasharray: none; stroke-linecap: butt; stroke-dashoffset: 0; stroke-linejoin: miter; stroke-miterlimit: 4; fill: rgb(229,226,209); fill-rule: nonzero; opacity: 1;"  paint-order="stroke"  transform=" translate(-8.58, 8.125)" d="M 13.31 0.42 Q 12.66 0.42 11.92 -0.25 Q 11.18 -0.91 10.56 -2.05 L 10.56 -2.05 L 7.77 -7.1 L 5.62 -7.1 L 5.54 -3.22 Q 5.54 -2.24 5.67 -1.81 Q 5.8 -1.38 6.16 -1.24 Q 6.53 -1.09 7.41 -1.09 L 7.41 -1.09 L 7.46 -0.99 L 7.23 0.1 Q 6.92 0.08 5.98 0.05 Q 5.04 0.03 4.03 0.03 L 4.03 0.03 Q 3.12 0.03 2.42 0.05 Q 1.72 0.08 1.48 0.1 L 1.48 0.1 L 1.72 -1.07 Q 2.55 -1.17 2.96 -1.35 Q 3.38 -1.53 3.54 -1.94 Q 3.69 -2.34 3.69 -3.12 L 3.69 -3.12 L 3.72 -14.04 Q 3.72 -14.87 3.52 -15.16 Q 3.33 -15.44 2.76 -15.44 L 2.76 -15.44 Q 2.5 -15.44 2.24 -15.42 Q 1.98 -15.39 1.87 -15.39 L 1.87 -15.39 L 1.82 -15.5 L 2 -16.64 Q 2.31 -16.61 3.17 -16.59 Q 4.03 -16.56 4.89 -16.56 L 4.89 -16.56 Q 5.77 -16.56 6.75 -16.6 Q 7.72 -16.64 8.09 -16.67 L 8.09 -16.67 Q 10.5 -16.67 11.91 -15.57 Q 13.31 -14.48 13.31 -12.58 L 13.31 -12.58 Q 13.31 -11.02 12.31 -9.72 Q 11.31 -8.42 9.49 -7.59 L 9.49 -7.59 L 12.35 -3.07 Q 13.1 -1.82 13.82 -1.34 Q 14.53 -0.86 15.57 -0.86 L 15.57 -0.86 L 15.68 -0.75 L 15.52 0.13 L 13.31 0.42 Z M 8.35 -8.29 Q 8.35 -8.22 9.13 -8.63 Q 9.91 -9.05 10.53 -9.91 Q 11.15 -10.76 11.15 -12.12 L 11.15 -12.12 Q 11.15 -15.55 6.4 -15.55 L 6.4 -15.55 Q 6.14 -15.55 6.05 -15.43 Q 5.95 -15.31 5.93 -14.95 L 5.93 -14.95 Q 5.69 -10.97 5.67 -8.55 L 5.67 -8.55 L 8.35 -8.29 Z" stroke-linecap="round" />
</g>
</g>
</g>
<g transform="matrix(2.981988905435058 -0.5650405080489174 0.5650405080489174 2.981988905435058 525.3129034713046 37.077756317738306)" id="text-logo-14"  >
<g style=""  paint-order="stroke"   >
		<g transform="matrix(1 0 0 1 0 0)" id="654ade16-2164-470a-9cec-679ddec9e98a-path-0"  >
<path style="stroke: none; stroke-width: 0; stroke-dasharray: none; stroke-linecap: butt; stroke-dashoffset: 0; stroke-linejoin: miter; stroke-miterlimit: 4; fill: rgb(229,226,209); fill-rule: nonzero; opacity: 1;"  paint-order="stroke"  transform=" translate(-8.995000000000001, 8.280000000000001)" d="M 8.24 0.31 Q 6.14 0.31 4.5 -0.7 Q 2.86 -1.72 1.95 -3.55 Q 1.04 -5.38 1.04 -7.72 L 1.04 -7.72 Q 1.04 -10.27 2.17 -12.36 Q 3.3 -14.46 5.27 -15.67 Q 7.23 -16.87 9.59 -16.87 L 9.59 -16.87 Q 11.75 -16.87 13.42 -15.86 Q 15.08 -14.85 16.02 -13.03 Q 16.95 -11.21 16.95 -8.87 L 16.95 -8.87 Q 16.95 -6.32 15.8 -4.21 Q 14.64 -2.11 12.65 -0.9 Q 10.66 0.31 8.24 0.31 L 8.24 0.31 Z M 9.05 -1.01 Q 10.69 -1.01 11.96 -1.87 Q 13.23 -2.73 13.94 -4.26 Q 14.64 -5.8 14.64 -7.77 L 14.64 -7.77 Q 14.64 -9.98 13.88 -11.69 Q 13.13 -13.39 11.79 -14.35 Q 10.45 -15.31 8.71 -15.31 L 8.71 -15.31 Q 7.12 -15.31 5.89 -14.46 Q 4.65 -13.6 3.97 -12.06 Q 3.28 -10.53 3.28 -8.55 L 3.28 -8.55 Q 3.28 -6.34 4 -4.64 Q 4.73 -2.94 6.05 -1.98 Q 7.36 -1.01 9.05 -1.01 L 9.05 -1.01 Z" stroke-linecap="round" />
</g>
</g>
</g>
<g transform="matrix(3.0259309074473375 -0.23509732288752672 0.23509732288752674 3.025930907447338 593.7006325471388 28.218717863661027)" id="text-logo-15"  >
<g style=""  paint-order="stroke"   >
		<g transform="matrix(1 0 0 1 0 0)" id="b42fe0cd-46d6-4c64-b868-7cf5d0b95c79-path-0"  >
<path style="stroke: none; stroke-width: 0; stroke-dasharray: none; stroke-linecap: butt; stroke-dashoffset: 0; stroke-linejoin: miter; stroke-miterlimit: 4; fill: rgb(229,226,209); fill-rule: nonzero; opacity: 1;"  paint-order="stroke"  transform=" translate(-7.685, 8.23)" d="M 1.64 0.21 L 1.82 -0.99 Q 2.96 -1.2 3.33 -1.6 Q 3.69 -2 3.69 -3.12 L 3.69 -3.12 L 3.72 -14.04 Q 3.72 -14.87 3.52 -15.16 Q 3.33 -15.44 2.76 -15.44 L 2.76 -15.44 Q 2.5 -15.44 2.24 -15.42 Q 1.98 -15.39 1.87 -15.39 L 1.87 -15.39 L 1.82 -15.5 L 2 -16.64 Q 2.31 -16.61 3.17 -16.59 Q 4.03 -16.56 4.89 -16.56 L 4.89 -16.56 Q 5.69 -16.56 6.72 -16.6 Q 7.75 -16.64 8.16 -16.67 L 8.16 -16.67 Q 10.87 -16.67 12.3 -15.47 Q 13.73 -14.27 13.73 -12.04 L 13.73 -12.04 Q 13.73 -10.58 12.88 -9.27 Q 12.04 -7.96 10.66 -7.15 Q 9.28 -6.34 7.77 -6.34 L 7.77 -6.34 L 5.59 -6.34 L 5.54 -3.8 Q 5.54 -2.55 5.62 -2.02 Q 5.69 -1.48 5.92 -1.31 Q 6.14 -1.14 6.68 -1.14 L 6.68 -1.14 Q 7.12 -1.14 7.53 -1.17 Q 7.93 -1.2 8.09 -1.22 L 8.09 -1.22 L 8.14 -1.12 L 7.9 0.08 Q 7.64 0.05 6.96 0.03 Q 6.27 0 5.51 0 L 5.51 0 Q 4.47 0 3.08 0.08 Q 1.69 0.16 1.64 0.21 L 1.64 0.21 Z M 8.4 -7.49 Q 9.96 -7.75 10.75 -8.76 Q 11.54 -9.78 11.54 -11.54 L 11.54 -11.54 Q 11.54 -13.55 10.36 -14.47 Q 9.18 -15.39 6.66 -15.39 L 6.66 -15.39 Q 6.19 -15.39 6.08 -15.34 Q 5.98 -15.29 5.95 -15.03 L 5.95 -15.03 Q 5.72 -11.73 5.64 -7.88 L 5.64 -7.88 L 8.4 -7.49 Z" stroke-linecap="round" />
</g>
</g>
</g>
<g transform="matrix(3.034095506557005 0.07611218670189492 -0.07611218670189492 3.034095506557005 655.0366533473355 26.455879083744435)" id="text-logo-16"  >
<g style=""  paint-order="stroke"   >
		<g transform="matrix(1 0 0 1 0 0)" id="8a530c49-582b-4b9c-9131-3e7ce6135e13-path-0"  >
<path style="stroke: none; stroke-width: 0; stroke-dasharray: none; stroke-linecap: butt; stroke-dashoffset: 0; stroke-linejoin: miter; stroke-miterlimit: 4; fill: rgb(229,226,209); fill-rule: nonzero; opacity: 1;"  paint-order="stroke"  transform=" translate(-7.67, 8.305)" d="M 13.75 -4.47 L 13.83 -4.34 Q 13.39 -2.24 13.13 0.03 L 13.13 0.03 L 13 0.18 Q 7.54 0 5.12 0 L 5.12 0 Q 3.2 0 1.51 0.26 L 1.51 0.26 L 1.66 -0.94 Q 2.83 -1.09 3.26 -1.55 Q 3.69 -2 3.69 -3.12 L 3.69 -3.12 L 3.72 -14.04 Q 3.72 -14.87 3.52 -15.16 Q 3.33 -15.44 2.76 -15.44 L 2.76 -15.44 L 1.87 -15.39 L 1.82 -15.5 L 2 -16.64 Q 4.65 -16.56 5.62 -16.56 L 5.62 -16.56 Q 8.71 -16.56 10.43 -16.63 Q 12.14 -16.69 13.42 -16.87 L 13.42 -16.87 L 13.49 -16.72 Q 13.03 -14.66 12.9 -12.4 L 12.9 -12.4 L 11.65 -12.3 L 11.7 -13.42 Q 11.7 -14.33 11.47 -14.68 Q 11.23 -15.03 10.45 -15.15 Q 9.67 -15.26 7.72 -15.26 L 7.72 -15.26 Q 6.81 -15.26 6.47 -15.21 Q 6.14 -15.16 6.03 -14.96 Q 5.93 -14.77 5.9 -14.25 L 5.9 -14.25 L 5.69 -9.2 L 8.37 -9.18 Q 9.39 -9.18 11.54 -9.46 L 11.54 -9.46 L 11.65 -9.33 L 11.28 -7.8 Q 8.4 -7.88 7.64 -7.88 L 7.64 -7.88 Q 6.79 -7.88 5.64 -7.7 L 5.64 -7.7 L 5.54 -2.73 Q 5.54 -1.98 5.67 -1.68 Q 5.8 -1.38 6.2 -1.27 Q 6.6 -1.17 7.59 -1.17 L 7.59 -1.17 Q 9.78 -1.17 10.7 -1.38 Q 11.62 -1.59 12.01 -2.21 Q 12.4 -2.83 12.61 -4.34 L 12.61 -4.34 L 13.75 -4.47 Z" stroke-linecap="round" />
</g>
</g>
</g>
<g transform="matrix(3.0087031663745387 0.39904118148604434 -0.39904118148604445 3.00870316637454 722.2535885915931 32.400959928072666)" id="text-logo-17"  >
<g style=""  paint-order="stroke"   >
		<g transform="matrix(1 0 0 1 0 0)" id="ae8de8b8-6994-4c9f-89d7-c7a20882ca39-path-0"  >
<path style="stroke: none; stroke-width: 0; stroke-dasharray: none; stroke-linecap: butt; stroke-dashoffset: 0; stroke-linejoin: miter; stroke-miterlimit: 4; fill: rgb(229,226,209); fill-rule: nonzero; opacity: 1;"  paint-order="stroke"  transform=" translate(-8.58, 8.125)" d="M 13.31 0.42 Q 12.66 0.42 11.92 -0.25 Q 11.18 -0.91 10.56 -2.05 L 10.56 -2.05 L 7.77 -7.1 L 5.62 -7.1 L 5.54 -3.22 Q 5.54 -2.24 5.67 -1.81 Q 5.8 -1.38 6.16 -1.24 Q 6.53 -1.09 7.41 -1.09 L 7.41 -1.09 L 7.46 -0.99 L 7.23 0.1 Q 6.92 0.08 5.98 0.05 Q 5.04 0.03 4.03 0.03 L 4.03 0.03 Q 3.12 0.03 2.42 0.05 Q 1.72 0.08 1.48 0.1 L 1.48 0.1 L 1.72 -1.07 Q 2.55 -1.17 2.96 -1.35 Q 3.38 -1.53 3.54 -1.94 Q 3.69 -2.34 3.69 -3.12 L 3.69 -3.12 L 3.72 -14.04 Q 3.72 -14.87 3.52 -15.16 Q 3.33 -15.44 2.76 -15.44 L 2.76 -15.44 Q 2.5 -15.44 2.24 -15.42 Q 1.98 -15.39 1.87 -15.39 L 1.87 -15.39 L 1.82 -15.5 L 2 -16.64 Q 2.31 -16.61 3.17 -16.59 Q 4.03 -16.56 4.89 -16.56 L 4.89 -16.56 Q 5.77 -16.56 6.75 -16.6 Q 7.72 -16.64 8.09 -16.67 L 8.09 -16.67 Q 10.5 -16.67 11.91 -15.57 Q 13.31 -14.48 13.31 -12.58 L 13.31 -12.58 Q 13.31 -11.02 12.31 -9.72 Q 11.31 -8.42 9.49 -7.59 L 9.49 -7.59 L 12.35 -3.07 Q 13.1 -1.82 13.82 -1.34 Q 14.53 -0.86 15.57 -0.86 L 15.57 -0.86 L 15.68 -0.75 L 15.52 0.13 L 13.31 0.42 Z M 8.35 -8.29 Q 8.35 -8.22 9.13 -8.63 Q 9.91 -9.05 10.53 -9.91 Q 11.15 -10.76 11.15 -12.12 L 11.15 -12.12 Q 11.15 -15.55 6.4 -15.55 L 6.4 -15.55 Q 6.14 -15.55 6.05 -15.43 Q 5.95 -15.31 5.93 -14.95 L 5.93 -14.95 Q 5.69 -10.97 5.67 -8.55 L 5.67 -8.55 L 8.35 -8.29 Z" stroke-linecap="round" />
</g>
</g>
</g>
<g transform="matrix(2.9512630155065636 0.7082197548621859 -0.7082197548621864 2.9512630155065653 782.9384254991846 42.97342869902997)" id="text-logo-18"  >
<g style=""  paint-order="stroke"   >
		<g transform="matrix(1 0 0 1 0 0)" id="d9a809f6-6794-4cfb-871c-f029e396daa3-path-0"  >
<path style="stroke: none; stroke-width: 0; stroke-dasharray: none; stroke-linecap: butt; stroke-dashoffset: 0; stroke-linejoin: miter; stroke-miterlimit: 4; fill: rgb(229,226,209); fill-rule: nonzero; opacity: 1;"  paint-order="stroke"  transform=" translate(-7.07, 8.385)" d="M 3.25 0.1 L 3.46 -1.01 Q 4.76 -1.12 5.25 -1.34 Q 5.75 -1.56 5.9 -2.15 Q 6.06 -2.73 6.06 -4.21 L 6.06 -4.21 L 6.06 -15.55 Q 3.85 -15.47 3.06 -15.3 Q 2.26 -15.13 1.98 -14.55 Q 1.69 -13.96 1.46 -12.27 L 1.46 -12.27 L 0.23 -12.17 Q 0.55 -14.64 0.62 -16.67 L 0.62 -16.67 L 0.86 -16.87 L 3.02 -16.59 L 11.08 -16.59 L 13.29 -16.87 L 13.52 -16.67 Q 13.6 -14.53 13.91 -12.27 L 13.91 -12.27 L 12.69 -12.17 Q 12.4 -13.88 12.12 -14.48 Q 11.83 -15.08 11.1 -15.26 Q 10.37 -15.44 8.29 -15.55 L 8.29 -15.55 Q 8.14 -13.99 8.01 -10.04 Q 7.88 -6.08 7.88 -2.91 L 7.88 -2.91 Q 7.88 -1.95 8.22 -1.55 Q 8.55 -1.14 9.36 -1.14 L 9.36 -1.14 Q 10.14 -1.14 10.79 -1.22 L 10.79 -1.22 L 10.87 -1.12 L 10.63 0.08 L 9.78 0.05 L 6.81 0 Q 5.38 0 3.25 0.1 L 3.25 0.1 Z" stroke-linecap="round" />
</g>
</g>
</g>
<g transform="matrix(2.8671794441452487 0.9953947171574159 -0.9953947171574161 2.867179444145249 841.0018294006004 60.46828148633921)" id="text-logo-19"  >
<g style=""  paint-order="stroke"   >
		<g transform="matrix(1 0 0 1 7.10543e-15 0)" id="36e91711-3ee7-462d-8135-fe9d93fda779-path-0"  >
<path style="stroke: none; stroke-width: 0; stroke-dasharray: none; stroke-linecap: butt; stroke-dashoffset: 0; stroke-linejoin: miter; stroke-miterlimit: 4; fill: rgb(229,226,209); fill-rule: nonzero; opacity: 1;"  paint-order="stroke"  transform=" translate(-7.01, 8.23)" d="M 3.74 0.31 L 3.9 -0.88 Q 4.84 -1.07 5.25 -1.35 Q 5.67 -1.64 5.8 -2.13 Q 5.93 -2.63 5.93 -3.69 L 5.93 -3.69 L 5.93 -4.84 Q 5.93 -5.64 5.77 -6.25 Q 5.62 -6.86 5.17 -7.77 L 5.17 -7.77 L 2.83 -12.53 Q 2.16 -13.91 1.87 -14.39 Q 1.59 -14.87 1.07 -15.16 Q 0.55 -15.44 -0.44 -15.52 L -0.44 -15.52 L -0.49 -15.63 L -0.34 -16.64 Q -0.05 -16.61 0.75 -16.59 Q 1.56 -16.56 2.52 -16.56 L 2.52 -16.56 Q 3.43 -16.56 4.64 -16.65 Q 5.85 -16.74 6.21 -16.77 L 6.21 -16.77 L 6.29 -16.59 L 6.21 -15.68 Q 5.04 -15.57 4.64 -15.38 Q 4.24 -15.18 4.24 -14.74 L 4.24 -14.74 Q 4.24 -14.4 4.89 -12.9 Q 5.54 -11.39 6.23 -9.93 Q 6.92 -8.48 7.15 -8.03 L 7.15 -8.03 L 7.28 -8.03 L 10.24 -13.55 Q 10.66 -14.3 10.66 -14.85 L 10.66 -14.85 Q 10.66 -15.52 9.02 -15.63 L 9.02 -15.63 L 8.97 -15.73 L 9.13 -16.74 Q 9.44 -16.72 10.43 -16.64 Q 11.41 -16.56 12.01 -16.56 L 12.01 -16.56 Q 12.64 -16.56 13.4 -16.6 Q 14.17 -16.64 14.4 -16.67 L 14.4 -16.67 L 14.51 -16.48 L 14.35 -15.52 Q 13.52 -15.37 13.05 -15.09 Q 12.58 -14.82 12.23 -14.31 Q 11.88 -13.81 11.21 -12.61 L 11.21 -12.61 Q 11.05 -12.3 10.95 -12.14 L 10.95 -12.14 L 8.35 -7.57 Q 8.01 -6.97 7.92 -6.21 Q 7.83 -5.46 7.77 -3.48 L 7.77 -3.48 L 7.77 -2.91 Q 7.75 -1.9 8 -1.52 Q 8.24 -1.14 8.92 -1.14 L 8.92 -1.14 Q 9.33 -1.14 9.7 -1.17 Q 10.06 -1.2 10.19 -1.22 L 10.19 -1.22 L 10.24 -1.12 L 10.01 0.08 Q 9.65 0.05 8.67 0.03 Q 7.7 0 6.71 0 L 6.71 0 Q 5.9 0 4.97 0.13 Q 4.03 0.26 3.74 0.31 L 3.74 0.31 Z" stroke-linecap="round" />
</g>
</g>
</g>
<g transform="matrix(0.9176432004172604 0.3974052801963853 -0.39740528019638544 0.9176432004172607 403.8476913318114 108.55943876365579)" id="text-logo-20"  >
<g style=""  paint-order="stroke"   >
		<g transform="matrix(1 0 0 1 0 0)" id="59efe648-c16b-43d0-a52e-92eb022775ba-path-0"  >
<path style="stroke: none; stroke-width: 0; stroke-dasharray: none; stroke-linecap: butt; stroke-dashoffset: 0; stroke-linejoin: miter; stroke-miterlimit: 4; fill: rgb(229,226,209); fill-rule: nonzero; opacity: 1;"  paint-order="stroke"  transform=" translate(0, 0)" d="" stroke-linecap="round" />
</g>
</g>
</g>
<g transform="matrix(2.656610355008584 1.4676341606596388 -1.4676341606596388 2.656610355008584 936.1583031670784 103.27687472635444)" id="text-logo-21"  >
<g style=""  paint-order="stroke"   >
		<g transform="matrix(1 0 0 1 0 0)" id="3c12df4f-35df-456f-b098-b8781359b49d-path-0"  >
<path style="stroke: none; stroke-width: 0; stroke-dasharray: none; stroke-linecap: butt; stroke-dashoffset: 0; stroke-linejoin: miter; stroke-miterlimit: 4; fill: rgb(229,226,209); fill-rule: nonzero; opacity: 1;"  paint-order="stroke"  transform=" translate(-10.975, 8.115)" d="M 10.32 0.49 L 5.33 -13.52 L 5.2 -13.52 Q 5.04 -11.8 4.65 -7.09 Q 4.26 -2.37 4.26 -1.95 L 4.26 -1.95 Q 4.26 -1.14 5.07 -1.14 L 5.07 -1.14 L 6.14 -1.17 L 6.19 -1.07 L 5.95 0.1 Q 5.67 0.08 4.93 0.04 Q 4.19 0 3.43 0 L 3.43 0 Q 2.78 0 2.09 0.09 Q 1.4 0.18 1.2 0.21 L 1.2 0.21 L 1.33 -0.99 Q 2.16 -1.09 2.52 -1.52 Q 2.89 -1.95 2.99 -2.99 L 2.99 -2.99 Q 3.25 -5.43 3.68 -9.58 Q 4.11 -13.73 4.11 -14.22 L 4.11 -14.22 Q 4.11 -14.9 3.58 -15.24 Q 3.04 -15.57 1.87 -15.65 L 1.87 -15.65 L 1.79 -15.78 L 2 -16.69 Q 2.34 -16.67 3.33 -16.61 Q 4.32 -16.56 4.84 -16.56 L 4.84 -16.56 Q 5.3 -16.56 5.86 -16.6 Q 6.42 -16.64 6.6 -16.67 L 6.6 -16.67 Q 7.64 -13.31 8.62 -10.44 Q 9.59 -7.57 10.22 -5.88 Q 10.84 -4.19 11 -3.77 L 11 -3.77 L 11.13 -3.77 Q 11.49 -4.73 12.79 -8.35 Q 14.09 -11.96 15.63 -16.61 L 15.63 -16.61 Q 15.63 -16.64 16.33 -16.59 L 16.33 -16.59 L 17.34 -16.56 Q 17.84 -16.56 18.82 -16.63 Q 19.81 -16.69 20.15 -16.72 L 20.15 -16.72 L 20.2 -16.61 L 20.07 -15.65 Q 18.95 -15.52 18.49 -15.2 Q 18.02 -14.87 18.02 -14.22 L 18.02 -14.22 Q 18.02 -13.65 18.25 -9.97 Q 18.49 -6.29 18.69 -3.61 L 18.69 -3.61 Q 18.82 -2.55 18.95 -2.04 Q 19.08 -1.53 19.32 -1.34 Q 19.55 -1.14 19.97 -1.14 L 19.97 -1.14 Q 20.2 -1.14 20.41 -1.17 Q 20.62 -1.2 20.7 -1.2 L 20.7 -1.2 L 20.75 -1.09 L 20.51 0.08 Q 20.25 0.05 19.54 0.03 Q 18.82 0 18.04 0 L 18.04 0 Q 17.34 0 16.47 0.09 Q 15.6 0.18 15.34 0.21 L 15.34 0.21 L 15.44 -0.99 Q 16.25 -1.09 16.61 -1.4 Q 16.98 -1.72 16.98 -2.29 L 16.98 -2.29 Q 16.98 -2.83 16.6 -7.36 Q 16.22 -11.88 16.09 -13.52 L 16.09 -13.52 L 15.96 -13.52 L 10.95 0.31 L 10.32 0.49 Z" stroke-linecap="round" />
</g>
</g>
</g>
<g transform="matrix(2.456654003199526 1.7822400838376677 -1.7822400838376677 2.456654003199526 1000.0234791558723 143.14545737393388)" id="text-logo-22"  >
<g style=""  paint-order="stroke"   >
		<g transform="matrix(1 0 0 1 0 0)" id="c1e9c805-e194-40e9-a3fc-92ded0a553df-path-0"  >
<path style="stroke: none; stroke-width: 0; stroke-dasharray: none; stroke-linecap: butt; stroke-dashoffset: 0; stroke-linejoin: miter; stroke-miterlimit: 4; fill: rgb(229,226,209); fill-rule: nonzero; opacity: 1;"  paint-order="stroke"  transform=" translate(-7.525, 8.305)" d="M 8.63 0.26 L 8.55 0.08 L 8.66 -0.94 Q 9.98 -1.04 10.48 -1.25 Q 10.97 -1.46 10.97 -1.92 L 10.97 -1.92 Q 10.97 -2.44 10.74 -3.17 L 10.74 -3.17 L 9.88 -6.01 Q 9.26 -6.03 7.18 -6.03 L 7.18 -6.03 Q 5.93 -6.03 4.34 -5.82 L 4.34 -5.82 L 3.38 -3.12 Q 3.15 -2.42 3.15 -2.11 L 3.15 -2.11 Q 3.15 -1.53 3.51 -1.29 Q 3.87 -1.04 4.71 -1.04 L 4.71 -1.04 L 6.19 -1.04 L 6.24 -0.94 L 6.08 0.18 Q 5.77 0.16 4.65 0.08 Q 3.54 0 2.47 0 L 2.47 0 Q 1.51 0 0.69 0.03 Q -0.13 0.05 -0.39 0.08 L -0.39 0.08 L -0.18 -1.14 Q 0.55 -1.22 0.99 -1.65 Q 1.43 -2.08 1.85 -3.15 L 1.85 -3.15 L 6.92 -16.43 L 8.55 -16.87 L 8.76 -16.87 Q 8.92 -16.25 9.56 -13.99 Q 10.19 -11.73 11.12 -8.63 Q 12.04 -5.54 12.9 -2.94 L 12.9 -2.94 Q 13.21 -1.98 13.73 -1.59 Q 14.25 -1.2 15.39 -1.09 L 15.39 -1.09 L 15.44 -0.99 L 15.26 0.08 Q 14.95 0.08 14.13 0.04 Q 13.31 0 12.51 0 L 12.51 0 Q 11.26 0 10.1 0.1 Q 8.94 0.21 8.63 0.26 L 8.63 0.26 Z M 4.81 -7.1 L 7.1 -7.1 Q 8.03 -7.1 9.52 -7.23 L 9.52 -7.23 L 7.46 -14.04 L 7.28 -14.04 L 4.81 -7.1 Z" stroke-linecap="round" />
</g>
</g>
</g>
<g transform="matrix(2.237850537988314 2.0502569540180495 -2.0502569540180495 2.237850537988314 1054.1203331559227 189.07541599705033)" id="text-logo-23"  >
<g style=""  paint-order="stroke"   >
		<g transform="matrix(1 0 0 1 0 0)" id="fbd4147c-9504-41e8-a88c-278012d41a61-path-0"  >
<path style="stroke: none; stroke-width: 0; stroke-dasharray: none; stroke-linecap: butt; stroke-dashoffset: 0; stroke-linejoin: miter; stroke-miterlimit: 4; fill: rgb(229,226,209); fill-rule: nonzero; opacity: 1;"  paint-order="stroke"  transform=" translate(-9.620000000000001, 7.865)" d="M 14.82 1.04 Q 12.56 -2.47 10.41 -5.66 Q 8.27 -8.84 6.89 -10.8 Q 5.51 -12.77 5.15 -13.29 L 5.15 -13.29 L 5.02 -13.29 L 4.89 -2.18 Q 4.89 -1.61 5.07 -1.38 Q 5.25 -1.14 5.69 -1.14 L 5.69 -1.14 L 7.02 -1.17 L 7.07 -1.07 L 6.84 0.1 Q 6.55 0.08 5.67 0.04 Q 4.78 0 4.08 0 L 4.08 0 Q 3.43 0 2.67 0.09 Q 1.9 0.18 1.66 0.21 L 1.66 0.21 L 1.79 -0.99 Q 2.6 -1.09 2.99 -1.47 Q 3.38 -1.85 3.41 -2.63 L 3.41 -2.63 L 3.74 -13.99 Q 3.74 -14.79 3.26 -15.13 Q 2.78 -15.47 1.48 -15.6 L 1.48 -15.6 L 1.4 -15.73 L 1.61 -16.69 Q 1.85 -16.67 2.63 -16.61 Q 3.41 -16.56 3.85 -16.56 L 3.85 -16.56 Q 4.39 -16.56 4.91 -16.6 Q 5.43 -16.64 5.59 -16.67 L 5.59 -16.67 Q 7.51 -13.68 9.45 -10.82 Q 11.39 -7.96 12.69 -6.11 Q 13.99 -4.26 14.33 -3.77 L 14.33 -3.77 L 14.46 -3.77 L 14.46 -14.3 Q 14.46 -15.42 13.6 -15.42 L 13.6 -15.42 L 12.61 -15.39 L 12.56 -15.5 L 12.79 -16.67 Q 13.05 -16.64 13.78 -16.6 Q 14.51 -16.56 15.26 -16.56 L 15.26 -16.56 Q 15.94 -16.56 16.76 -16.65 Q 17.58 -16.74 17.84 -16.77 L 17.84 -16.77 L 17.71 -15.57 Q 16.8 -15.44 16.38 -15.07 Q 15.96 -14.69 15.94 -13.94 L 15.94 -13.94 L 15.57 0.68 L 14.82 1.04 Z" stroke-linecap="round" />
</g>
</g>
</g>
<g transform="matrix(1.9931411703136535 2.2888680353123623 -2.2888680353123623 1.9931411703136535 1102.5632160892824 236.88145729573552)" id="text-logo-24"  >
<g style=""  paint-order="stroke"   >
		<g transform="matrix(1 0 0 1 0 0)" id="e7e3db12-c715-4b97-a06e-c695e88ce676-path-0"  >
<path style="stroke: none; stroke-width: 0; stroke-dasharray: none; stroke-linecap: butt; stroke-dashoffset: 0; stroke-linejoin: miter; stroke-miterlimit: 4; fill: rgb(229,226,209); fill-rule: nonzero; opacity: 1;"  paint-order="stroke"  transform=" translate(-7.525, 8.305)" d="M 8.63 0.26 L 8.55 0.08 L 8.66 -0.94 Q 9.98 -1.04 10.48 -1.25 Q 10.97 -1.46 10.97 -1.92 L 10.97 -1.92 Q 10.97 -2.44 10.74 -3.17 L 10.74 -3.17 L 9.88 -6.01 Q 9.26 -6.03 7.18 -6.03 L 7.18 -6.03 Q 5.93 -6.03 4.34 -5.82 L 4.34 -5.82 L 3.38 -3.12 Q 3.15 -2.42 3.15 -2.11 L 3.15 -2.11 Q 3.15 -1.53 3.51 -1.29 Q 3.87 -1.04 4.71 -1.04 L 4.71 -1.04 L 6.19 -1.04 L 6.24 -0.94 L 6.08 0.18 Q 5.77 0.16 4.65 0.08 Q 3.54 0 2.47 0 L 2.47 0 Q 1.51 0 0.69 0.03 Q -0.13 0.05 -0.39 0.08 L -0.39 0.08 L -0.18 -1.14 Q 0.55 -1.22 0.99 -1.65 Q 1.43 -2.08 1.85 -3.15 L 1.85 -3.15 L 6.92 -16.43 L 8.55 -16.87 L 8.76 -16.87 Q 8.92 -16.25 9.56 -13.99 Q 10.19 -11.73 11.12 -8.63 Q 12.04 -5.54 12.9 -2.94 L 12.9 -2.94 Q 13.21 -1.98 13.73 -1.59 Q 14.25 -1.2 15.39 -1.09 L 15.39 -1.09 L 15.44 -0.99 L 15.26 0.08 Q 14.95 0.08 14.13 0.04 Q 13.31 0 12.51 0 L 12.51 0 Q 11.26 0 10.1 0.1 Q 8.94 0.21 8.63 0.26 L 8.63 0.26 Z M 4.81 -7.1 L 7.1 -7.1 Q 8.03 -7.1 9.52 -7.23 L 9.52 -7.23 L 7.46 -14.04 L 7.28 -14.04 L 4.81 -7.1 Z" stroke-linecap="round" />
</g>
</g>
</g>
<g transform="matrix(1.7322387822619831 2.492163198729464 -2.492163198729464 1.7322387822619831 1142.9832932595616 288.74008776013994)" id="text-logo-25"  >
<g style=""  paint-order="stroke"   >
		<g transform="matrix(1 0 0 1 0 0)" id="3aff4c7e-4bd4-442d-8e2a-61741edc4a56-path-0"  >
<path style="stroke: none; stroke-width: 0; stroke-dasharray: none; stroke-linecap: butt; stroke-dashoffset: 0; stroke-linejoin: miter; stroke-miterlimit: 4; fill: rgb(229,226,209); fill-rule: nonzero; opacity: 1;"  paint-order="stroke"  transform=" translate(-8.215, 8.280000000000001)" d="M 8.63 0.31 Q 6.34 0.31 4.63 -0.68 Q 2.91 -1.66 1.98 -3.47 Q 1.04 -5.28 1.04 -7.72 L 1.04 -7.72 Q 1.04 -10.4 2.18 -12.48 Q 3.33 -14.56 5.41 -15.72 Q 7.49 -16.87 10.17 -16.87 L 10.17 -16.87 Q 11.13 -16.87 12.25 -16.73 Q 13.36 -16.59 14.17 -16.45 Q 14.98 -16.3 15.21 -16.25 L 15.21 -16.25 L 15.31 -16.09 Q 15.26 -15.94 15.13 -15.34 Q 15 -14.74 14.86 -13.78 Q 14.72 -12.82 14.64 -11.75 L 14.64 -11.75 L 13.42 -11.65 Q 13.44 -11.78 13.47 -12.16 Q 13.49 -12.53 13.49 -13.05 L 13.49 -13.05 Q 13.49 -14.25 12.57 -14.79 Q 11.65 -15.34 9.57 -15.34 L 9.57 -15.34 Q 6.6 -15.34 4.95 -13.56 Q 3.3 -11.78 3.3 -8.55 L 3.3 -8.55 Q 3.3 -6.29 4.03 -4.58 Q 4.76 -2.86 6.11 -1.92 Q 7.46 -0.99 9.23 -0.99 L 9.23 -0.99 Q 10.17 -0.99 10.95 -1.21 Q 11.73 -1.43 12.26 -1.69 Q 12.79 -1.95 12.79 -1.98 L 12.79 -1.98 L 12.79 -5.15 Q 12.79 -6.03 12.52 -6.29 Q 12.25 -6.55 11.36 -6.55 L 11.36 -6.55 L 9.57 -6.55 L 9.52 -6.66 L 9.75 -7.96 Q 10.06 -7.93 11.08 -7.89 Q 12.09 -7.85 13.05 -7.85 L 13.05 -7.85 Q 13.75 -7.85 14.43 -7.9 Q 15.11 -7.96 15.29 -7.98 L 15.29 -7.98 L 15.39 -7.41 Q 14.92 -7.02 14.76 -6.18 Q 14.59 -5.33 14.59 -3.41 L 14.59 -3.41 Q 14.59 -1.9 14.77 -1.12 L 14.77 -1.12 L 14.61 -0.88 Q 14.61 -0.86 13.69 -0.53 Q 12.77 -0.21 11.43 0.05 Q 10.09 0.31 8.63 0.31 L 8.63 0.31 Z" stroke-linecap="round" />
</g>
</g>
</g>
<g transform="matrix(1.4461405383218822 2.6683714417779334 -2.668371441777934 1.4461405383218824 1179.5016031272487 347.7300482629598)" id="text-logo-26"  >
<g style=""  paint-order="stroke"   >
		<g transform="matrix(1 0 0 1 0 0)" id="ec0e1954-aea6-4655-85d2-cd63a01b79e6-path-0"  >
<path style="stroke: none; stroke-width: 0; stroke-dasharray: none; stroke-linecap: butt; stroke-dashoffset: 0; stroke-linejoin: miter; stroke-miterlimit: 4; fill: rgb(229,226,209); fill-rule: nonzero; opacity: 1;"  paint-order="stroke"  transform=" translate(-7.67, 8.305)" d="M 13.75 -4.47 L 13.83 -4.34 Q 13.39 -2.24 13.13 0.03 L 13.13 0.03 L 13 0.18 Q 7.54 0 5.12 0 L 5.12 0 Q 3.2 0 1.51 0.26 L 1.51 0.26 L 1.66 -0.94 Q 2.83 -1.09 3.26 -1.55 Q 3.69 -2 3.69 -3.12 L 3.69 -3.12 L 3.72 -14.04 Q 3.72 -14.87 3.52 -15.16 Q 3.33 -15.44 2.76 -15.44 L 2.76 -15.44 L 1.87 -15.39 L 1.82 -15.5 L 2 -16.64 Q 4.65 -16.56 5.62 -16.56 L 5.62 -16.56 Q 8.71 -16.56 10.43 -16.63 Q 12.14 -16.69 13.42 -16.87 L 13.42 -16.87 L 13.49 -16.72 Q 13.03 -14.66 12.9 -12.4 L 12.9 -12.4 L 11.65 -12.3 L 11.7 -13.42 Q 11.7 -14.33 11.47 -14.68 Q 11.23 -15.03 10.45 -15.15 Q 9.67 -15.26 7.72 -15.26 L 7.72 -15.26 Q 6.81 -15.26 6.47 -15.21 Q 6.14 -15.16 6.03 -14.96 Q 5.93 -14.77 5.9 -14.25 L 5.9 -14.25 L 5.69 -9.2 L 8.37 -9.18 Q 9.39 -9.18 11.54 -9.46 L 11.54 -9.46 L 11.65 -9.33 L 11.28 -7.8 Q 8.4 -7.88 7.64 -7.88 L 7.64 -7.88 Q 6.79 -7.88 5.64 -7.7 L 5.64 -7.7 L 5.54 -2.73 Q 5.54 -1.98 5.67 -1.68 Q 5.8 -1.38 6.2 -1.27 Q 6.6 -1.17 7.59 -1.17 L 7.59 -1.17 Q 9.78 -1.17 10.7 -1.38 Q 11.62 -1.59 12.01 -2.21 Q 12.4 -2.83 12.61 -4.34 L 12.61 -4.34 L 13.75 -4.47 Z" stroke-linecap="round" />
</g>
</g>
</g>
<g transform="matrix(1.1071354770106685 2.8259121789996073 -2.825912178999608 1.1071354770106687 1210.7682923298557 416.4022802997274)" id="text-logo-27"  >
<g style=""  paint-order="stroke"   >
		<g transform="matrix(1 0 0 1 0 0)" id="9e07144a-c774-4ecf-a426-21b7381735e4-path-0"  >
<path style="stroke: none; stroke-width: 0; stroke-dasharray: none; stroke-linecap: butt; stroke-dashoffset: 0; stroke-linejoin: miter; stroke-miterlimit: 4; fill: rgb(229,226,209); fill-rule: nonzero; opacity: 1;"  paint-order="stroke"  transform=" translate(-10.975, 8.115)" d="M 10.32 0.49 L 5.33 -13.52 L 5.2 -13.52 Q 5.04 -11.8 4.65 -7.09 Q 4.26 -2.37 4.26 -1.95 L 4.26 -1.95 Q 4.26 -1.14 5.07 -1.14 L 5.07 -1.14 L 6.14 -1.17 L 6.19 -1.07 L 5.95 0.1 Q 5.67 0.08 4.93 0.04 Q 4.19 0 3.43 0 L 3.43 0 Q 2.78 0 2.09 0.09 Q 1.4 0.18 1.2 0.21 L 1.2 0.21 L 1.33 -0.99 Q 2.16 -1.09 2.52 -1.52 Q 2.89 -1.95 2.99 -2.99 L 2.99 -2.99 Q 3.25 -5.43 3.68 -9.58 Q 4.11 -13.73 4.11 -14.22 L 4.11 -14.22 Q 4.11 -14.9 3.58 -15.24 Q 3.04 -15.57 1.87 -15.65 L 1.87 -15.65 L 1.79 -15.78 L 2 -16.69 Q 2.34 -16.67 3.33 -16.61 Q 4.32 -16.56 4.84 -16.56 L 4.84 -16.56 Q 5.3 -16.56 5.86 -16.6 Q 6.42 -16.64 6.6 -16.67 L 6.6 -16.67 Q 7.64 -13.31 8.62 -10.44 Q 9.59 -7.57 10.22 -5.88 Q 10.84 -4.19 11 -3.77 L 11 -3.77 L 11.13 -3.77 Q 11.49 -4.73 12.79 -8.35 Q 14.09 -11.96 15.63 -16.61 L 15.63 -16.61 Q 15.63 -16.64 16.33 -16.59 L 16.33 -16.59 L 17.34 -16.56 Q 17.84 -16.56 18.82 -16.63 Q 19.81 -16.69 20.15 -16.72 L 20.15 -16.72 L 20.2 -16.61 L 20.07 -15.65 Q 18.95 -15.52 18.49 -15.2 Q 18.02 -14.87 18.02 -14.22 L 18.02 -14.22 Q 18.02 -13.65 18.25 -9.97 Q 18.49 -6.29 18.69 -3.61 L 18.69 -3.61 Q 18.82 -2.55 18.95 -2.04 Q 19.08 -1.53 19.32 -1.34 Q 19.55 -1.14 19.97 -1.14 L 19.97 -1.14 Q 20.2 -1.14 20.41 -1.17 Q 20.62 -1.2 20.7 -1.2 L 20.7 -1.2 L 20.75 -1.09 L 20.51 0.08 Q 20.25 0.05 19.54 0.03 Q 18.82 0 18.04 0 L 18.04 0 Q 17.34 0 16.47 0.09 Q 15.6 0.18 15.34 0.21 L 15.34 0.21 L 15.44 -0.99 Q 16.25 -1.09 16.61 -1.4 Q 16.98 -1.72 16.98 -2.29 L 16.98 -2.29 Q 16.98 -2.83 16.6 -7.36 Q 16.22 -11.88 16.09 -13.52 L 16.09 -13.52 L 15.96 -13.52 L 10.95 0.31 L 10.32 0.49 Z" stroke-linecap="round" />
</g>
</g>
</g>
<g transform="matrix(0.7513346144535339 2.940582409149233 -2.940582409149234 0.751334614453534 1234.5743427063394 488.30472996270385)" id="text-logo-28"  >
<g style=""  paint-order="stroke"   >
		<g transform="matrix(1 0 0 1 0 0)" id="f9af33ae-0e5c-454d-9bc6-1aedde98f7cf-path-0"  >
<path style="stroke: none; stroke-width: 0; stroke-dasharray: none; stroke-linecap: butt; stroke-dashoffset: 0; stroke-linejoin: miter; stroke-miterlimit: 4; fill: rgb(229,226,209); fill-rule: nonzero; opacity: 1;"  paint-order="stroke"  transform=" translate(-7.67, 8.305)" d="M 13.75 -4.47 L 13.83 -4.34 Q 13.39 -2.24 13.13 0.03 L 13.13 0.03 L 13 0.18 Q 7.54 0 5.12 0 L 5.12 0 Q 3.2 0 1.51 0.26 L 1.51 0.26 L 1.66 -0.94 Q 2.83 -1.09 3.26 -1.55 Q 3.69 -2 3.69 -3.12 L 3.69 -3.12 L 3.72 -14.04 Q 3.72 -14.87 3.52 -15.16 Q 3.33 -15.44 2.76 -15.44 L 2.76 -15.44 L 1.87 -15.39 L 1.82 -15.5 L 2 -16.64 Q 4.65 -16.56 5.62 -16.56 L 5.62 -16.56 Q 8.71 -16.56 10.43 -16.63 Q 12.14 -16.69 13.42 -16.87 L 13.42 -16.87 L 13.49 -16.72 Q 13.03 -14.66 12.9 -12.4 L 12.9 -12.4 L 11.65 -12.3 L 11.7 -13.42 Q 11.7 -14.33 11.47 -14.68 Q 11.23 -15.03 10.45 -15.15 Q 9.67 -15.26 7.72 -15.26 L 7.72 -15.26 Q 6.81 -15.26 6.47 -15.21 Q 6.14 -15.16 6.03 -14.96 Q 5.93 -14.77 5.9 -14.25 L 5.9 -14.25 L 5.69 -9.2 L 8.37 -9.18 Q 9.39 -9.18 11.54 -9.46 L 11.54 -9.46 L 11.65 -9.33 L 11.28 -7.8 Q 8.4 -7.88 7.64 -7.88 L 7.64 -7.88 Q 6.79 -7.88 5.64 -7.7 L 5.64 -7.7 L 5.54 -2.73 Q 5.54 -1.98 5.67 -1.68 Q 5.8 -1.38 6.2 -1.27 Q 6.6 -1.17 7.59 -1.17 L 7.59 -1.17 Q 9.78 -1.17 10.7 -1.38 Q 11.62 -1.59 12.01 -2.21 Q 12.4 -2.83 12.61 -4.34 L 12.61 -4.34 L 13.75 -4.47 Z" stroke-linecap="round" />
</g>
</g>
</g>
<g transform="matrix(0.4107357722009598 3.0071289851465357 -3.0071289851465357 0.4107357722009598 1246.8156647007017 558.1765545229164)" id="text-logo-29"  >
<g style=""  paint-order="stroke"   >
		<g transform="matrix(1 0 0 1 0 0)" id="af4b96fa-01ae-4035-a63d-6f3c69abdebc-path-0"  >
<path style="stroke: none; stroke-width: 0; stroke-dasharray: none; stroke-linecap: butt; stroke-dashoffset: 0; stroke-linejoin: miter; stroke-miterlimit: 4; fill: rgb(229,226,209); fill-rule: nonzero; opacity: 1;"  paint-order="stroke"  transform=" translate(-9.620000000000001, 7.865)" d="M 14.82 1.04 Q 12.56 -2.47 10.41 -5.66 Q 8.27 -8.84 6.89 -10.8 Q 5.51 -12.77 5.15 -13.29 L 5.15 -13.29 L 5.02 -13.29 L 4.89 -2.18 Q 4.89 -1.61 5.07 -1.38 Q 5.25 -1.14 5.69 -1.14 L 5.69 -1.14 L 7.02 -1.17 L 7.07 -1.07 L 6.84 0.1 Q 6.55 0.08 5.67 0.04 Q 4.78 0 4.08 0 L 4.08 0 Q 3.43 0 2.67 0.09 Q 1.9 0.18 1.66 0.21 L 1.66 0.21 L 1.79 -0.99 Q 2.6 -1.09 2.99 -1.47 Q 3.38 -1.85 3.41 -2.63 L 3.41 -2.63 L 3.74 -13.99 Q 3.74 -14.79 3.26 -15.13 Q 2.78 -15.47 1.48 -15.6 L 1.48 -15.6 L 1.4 -15.73 L 1.61 -16.69 Q 1.85 -16.67 2.63 -16.61 Q 3.41 -16.56 3.85 -16.56 L 3.85 -16.56 Q 4.39 -16.56 4.91 -16.6 Q 5.43 -16.64 5.59 -16.67 L 5.59 -16.67 Q 7.51 -13.68 9.45 -10.82 Q 11.39 -7.96 12.69 -6.11 Q 13.99 -4.26 14.33 -3.77 L 14.33 -3.77 L 14.46 -3.77 L 14.46 -14.3 Q 14.46 -15.42 13.6 -15.42 L 13.6 -15.42 L 12.61 -15.39 L 12.56 -15.5 L 12.79 -16.67 Q 13.05 -16.64 13.78 -16.6 Q 14.51 -16.56 15.26 -16.56 L 15.26 -16.56 Q 15.94 -16.56 16.76 -16.65 Q 17.58 -16.74 17.84 -16.77 L 17.84 -16.77 L 17.71 -15.57 Q 16.8 -15.44 16.38 -15.07 Q 15.96 -14.69 15.94 -13.94 L 15.94 -13.94 L 15.57 0.68 L 14.82 1.04 Z" stroke-linecap="round" />
</g>
</g>
</g>
<g transform="matrix(0.08264898511826607 3.0339244804597354 -3.0339244804597354 0.08264898511826607 1253.6918317250902 623.5459298802606)" id="text-logo-30"  >
<g style=""  paint-order="stroke"   >
		<g transform="matrix(1 0 0 1 0 0)" id="e0be19f0-4b65-4eea-a8f6-2ba67418f7cf-path-0"  >
<path style="stroke: none; stroke-width: 0; stroke-dasharray: none; stroke-linecap: butt; stroke-dashoffset: 0; stroke-linejoin: miter; stroke-miterlimit: 4; fill: rgb(229,226,209); fill-rule: nonzero; opacity: 1;"  paint-order="stroke"  transform=" translate(-7.07, 8.385)" d="M 3.25 0.1 L 3.46 -1.01 Q 4.76 -1.12 5.25 -1.34 Q 5.75 -1.56 5.9 -2.15 Q 6.06 -2.73 6.06 -4.21 L 6.06 -4.21 L 6.06 -15.55 Q 3.85 -15.47 3.06 -15.3 Q 2.26 -15.13 1.98 -14.55 Q 1.69 -13.96 1.46 -12.27 L 1.46 -12.27 L 0.23 -12.17 Q 0.55 -14.64 0.62 -16.67 L 0.62 -16.67 L 0.86 -16.87 L 3.02 -16.59 L 11.08 -16.59 L 13.29 -16.87 L 13.52 -16.67 Q 13.6 -14.53 13.91 -12.27 L 13.91 -12.27 L 12.69 -12.17 Q 12.4 -13.88 12.12 -14.48 Q 11.83 -15.08 11.1 -15.26 Q 10.37 -15.44 8.29 -15.55 L 8.29 -15.55 Q 8.14 -13.99 8.01 -10.04 Q 7.88 -6.08 7.88 -2.91 L 7.88 -2.91 Q 7.88 -1.95 8.22 -1.55 Q 8.55 -1.14 9.36 -1.14 L 9.36 -1.14 Q 10.14 -1.14 10.79 -1.22 L 10.79 -1.22 L 10.87 -1.12 L 10.63 0.08 L 9.78 0.05 L 6.81 0 Q 5.38 0 3.25 0.1 L 3.25 0.1 Z" stroke-linecap="round" />
</g>
</g>
</g>
<g transform="matrix(-0.047804241726198286 0.9988567236961381 -0.9988567236961381 -0.047804241726198286 518.0409964563619 297.4280053488211)" id="text-logo-31"  >
<g style=""  paint-order="stroke"   >
		<g transform="matrix(1 0 0 1 0 0)" id="98e353a5-ff9a-4c15-830e-59b2d60093cc-path-0"  >
<path style="stroke: none; stroke-width: 0; stroke-dasharray: none; stroke-linecap: butt; stroke-dashoffset: 0; stroke-linejoin: miter; stroke-miterlimit: 4; fill: rgb(229,226,209); fill-rule: nonzero; opacity: 1;"  paint-order="stroke"  transform=" translate(0, 0)" d="" stroke-linecap="round" />
</g>
</g>
</g>
<g transform="matrix(3.0350500173595085 0 0 3.0350500173595085 588.7930927243003 202.8319699956978)" id="tagline-50640acf-a4a0-4660-8887-5c28b742daf4-logo"  >
<g style=""  paint-order="stroke"   >
		<g transform="matrix(1 0 0 1 -1.1413749999999823 -30.14840000000001)" id="tagline-50640acf-a4a0-4660-8887-5c28b742daf4-logo-path-0"  >
<path style="stroke: none; stroke-width: 0; stroke-dasharray: none; stroke-linecap: butt; stroke-dashoffset: 0; stroke-linejoin: miter; stroke-miterlimit: 4; fill: rgb(229,226,209); fill-rule: nonzero; opacity: 1;"  paint-order="stroke"  transform=" translate(0, 0)" d="" stroke-linecap="round" />
</g>
		<g transform="matrix(1 0 0 1 1.141375000000039 0)" id="tagline-50640acf-a4a0-4660-8887-5c28b742daf4-logo-path-1"  >
<path style="stroke: none; stroke-width: 0; stroke-dasharray: none; stroke-linecap: butt; stroke-dashoffset: 0; stroke-linejoin: miter; stroke-miterlimit: 4; fill: rgb(229,226,209); fill-rule: nonzero; opacity: 1;"  paint-order="stroke"  transform=" translate(0, 0)" d="" stroke-linecap="round" />
</g>
		<g transform="matrix(1 0 0 1 -1.1413749999999823 30.14839999999998)" id="tagline-50640acf-a4a0-4660-8887-5c28b742daf4-logo-path-2"  >
<path style="stroke: none; stroke-width: 0; stroke-dasharray: none; stroke-linecap: butt; stroke-dashoffset: 0; stroke-linejoin: miter; stroke-miterlimit: 4; fill: rgb(229,226,209); fill-rule: nonzero; opacity: 1;"  paint-order="stroke"  transform=" translate(0, 0)" d="" stroke-linecap="round" />
</g>
</g>
</g>
<g transform="matrix(1 0 0 1 149.82018924304296 188.2191388061945)" id="tagline-16839a59-324e-4c56-a908-ff08a9025ed8-logo"  >
<g style=""  paint-order="stroke"   >
		<g transform="matrix(1 0 0 1 0 0)" id="tagline-16839a59-324e-4c56-a908-ff08a9025ed8-logo-path-0"  >
<path style="stroke: none; stroke-width: 0; stroke-dasharray: none; stroke-linecap: butt; stroke-dashoffset: 0; stroke-linejoin: miter; stroke-miterlimit: 4; fill: rgb(144,218,232); fill-rule: nonzero; opacity: 1;"  paint-order="stroke"  transform=" translate(0, 0)" d="" stroke-linecap="round" />
</g>
</g>
</g>
<g transform="matrix(1 0 0 1 308.7160040970451 46.646042105263156)" id="tagline-b8b14410-43e1-4ef1-81ca-551d47af4e14-logo"  >
<g style=""  paint-order="stroke"   >
		<g transform="matrix(1 0 0 1 0 0)" id="tagline-b8b14410-43e1-4ef1-81ca-551d47af4e14-logo-path-0"  >
<path style="stroke: none; stroke-width: 0; stroke-dasharray: none; stroke-linecap: butt; stroke-dashoffset: 0; stroke-linejoin: miter; stroke-miterlimit: 4; fill: rgb(144,218,232); fill-rule: nonzero; opacity: 1;"  paint-order="stroke"  transform=" translate(0, 0)" d="" stroke-linecap="round" />
</g>
</g>
</g>
<g transform="matrix(1 0 0 1 337.16685885948044 197.64333880619452)" id="tagline-3abd8f04-c247-4992-b8b1-5c6217867db3-logo"  >
<g style=""  paint-order="stroke"   >
		<g transform="matrix(1 0 0 1 0 0)" id="tagline-3abd8f04-c247-4992-b8b1-5c6217867db3-logo-path-0"  >
<path style="stroke: none; stroke-width: 0; stroke-dasharray: none; stroke-linecap: butt; stroke-dashoffset: 0; stroke-linejoin: miter; stroke-miterlimit: 4; fill: rgb(144,218,232); fill-rule: nonzero; opacity: 1;"  paint-order="stroke"  transform=" translate(0, 0)" d="" stroke-linecap="round" />
</g>
</g>
</g>
</svg>